<?xml version="1.0" encoding="UTF-8" standalone="no"?>
<svg xmlns="http://www.w3.org/2000/svg" viewBox="45.5034 -242.1657 92.0013 225.1661" width="100%" height="100%">
  <path d="M 120.0046 -97.8601 L 120.0046 -95.9392 L 120.0912 -95.8732 L 120.1833 -95.8150 L 120.2800 -95.7651 L 120.3807 -95.7237 L 120.4847 -95.6913 L 120.5910 -95.6680 L 120.6990 -95.6541 L 120.8078 -95.6496 L 120.9165 -95.6546 L 121.0245 -95.6691 L 121.1307 -95.6929 L 121.2345 -95.7259 L 121.3350 -95.7677 L 121.4315 -95.8181 L 121.5232 -95.8768 L 121.6095 -95.9432 L 121.6896 -96.0169 L 121.7631 -96.0972 L 121.8293 -96.1837 L 121.8877 -96.2755 L 121.9379 -96.3721 L 121.9795 -96.4728 L 122.0122 -96.5766 L 122.0357 -96.6829 L 122.0499 -96.7909 L 122.0546 -96.8996 L 122.0499 -97.0084 L 122.0357 -97.1163 L 122.0122 -97.2226 L 121.9795 -97.3265 L 121.9379 -97.4271 L 121.8877 -97.5237 L 121.8293 -97.6156 L 121.7631 -97.7020 L 121.6896 -97.7824 L 121.6095 -97.8561 L 121.5232 -97.9225 L 121.4315 -97.9811 L 121.3350 -98.0316 L 121.2345 -98.0734 L 121.1307 -98.1064 L 121.0245 -98.1302 L 120.9165 -98.1446 L 120.8078 -98.1496 L 120.6990 -98.1452 L 120.5910 -98.1312 L 120.4847 -98.1080 L 120.3807 -98.0756 L 120.2800 -98.0342 L 120.1833 -97.9843 L 120.0912 -97.9261 Z" fill="#888888" stroke="#000000" stroke-width="0.5" fill-rule="evenodd" stroke-linejoin="round" />
</svg>
