<?xml version="1.0" encoding="UTF-8" standalone="no"?>
<svg xmlns="http://www.w3.org/2000/svg" viewBox="26.3101 -250.3287 85.0075 110.1781" width="100%" height="100%">
  <path d="M 102.9626 -215.6833 L 103.1462 -216.4741 L 103.4999 -216.5503 L 104.1123 -215.7495 L 104.4176 -215.0302 L 104.4176 -214.2283 L 104.4976 -214.0683 L 104.4976 -213.5883 L 104.4176 -213.4283 L 104.4176 -212.5466 L 104.1476 -211.8631 L 103.4265 -211.0931 L 103.0830 -211.1980 L 102.9606 -211.9603 L 102.7631 -212.1285 L 101.7176 -212.1285 L 101.5176 -211.9285 L 101.5176 -211.1285 L 101.2176 -210.8285 L 99.8569 -210.8285 L 98.8721 -212.0022 L 99.4330 -214.5089 L 99.3862 -214.7288 L 98.5866 -216.6283 L 98.5719 -216.7250 L 97.9580 -216.8447 L 97.8337 -216.7059 L 97.4536 -215.6137 L 96.8894 -215.0765 L 97.6116 -217.4725 L 100.9708 -218.0608 L 101.5556 -217.6067 L 101.7016 -215.7111 L 101.9009 -215.5285 L 102.7678 -215.5285 Z M 99.3099 -217.1951 L 99.1545 -216.8836 L 100.0341 -215.0201 L 100.0112 -214.7683 L 100.0302 -214.4713 L 100.1033 -214.2795 L 99.6029 -212.1153 L 100.0953 -211.5285 L 100.7580 -211.5285 L 101.0580 -211.8285 L 100.8711 -214.5259 L 101.1013 -217.2539 L 100.7362 -217.3668 L 100.5816 -217.2800 Z M 102.7844 -212.6533 L 102.8265 -212.7128 L 102.9898 -212.7973 L 103.2891 -212.7973 L 103.4664 -213.0900 L 103.4538 -214.5696 L 103.2751 -214.8593 L 102.9898 -214.8593 L 102.8265 -214.9438 L 102.7844 -215.0033 L 102.4508 -215.0033 L 102.3870 -214.9131 L 102.2237 -214.8285 L 101.8176 -214.8285 L 101.5176 -214.5285 L 101.5176 -213.1281 L 101.8176 -212.8281 L 102.2237 -212.8281 L 102.3870 -212.7436 L 102.4508 -212.6533 Z" fill="#888888" stroke="#000000" stroke-width="0.5" fill-rule="evenodd" />
</svg>
