<?xml version="1.0" encoding="UTF-8" standalone="no"?>
<svg xmlns="http://www.w3.org/2000/svg" viewBox="9.7284 -247.0641 130.4976 225.5661" width="100%" height="100%">
  <path d="M 97.1684 -195.3641 L 97.1667 -195.4054 L 97.1616 -195.4464 L 97.1531 -195.4868 L 97.1413 -195.5264 L 97.1263 -195.5649 L 97.1082 -195.6021 L 97.0870 -195.6376 L 97.0630 -195.6712 L 97.0363 -195.7027 L 97.0071 -195.7320 L 96.9755 -195.7587 L 96.9419 -195.7827 L 96.9064 -195.8038 L 96.8693 -195.8220 L 96.8308 -195.8370 L 96.7912 -195.8488 L 96.7507 -195.8573 L 96.7097 -195.8624 L 96.6684 -195.8641 L 95.1529 -195.8641 L 89.0242 -195.2510 L 82.9064 -194.5373 L 82.8645 -194.5302 L 82.8233 -194.5196 L 82.7831 -194.5055 L 82.7443 -194.4881 L 82.7072 -194.4674 L 82.6719 -194.4437 L 82.6387 -194.4170 L 82.6080 -194.3877 L 82.5798 -194.3558 L 82.5545 -194.3216 L 82.5322 -194.2854 L 82.5130 -194.2475 L 82.4971 -194.2080 L 82.4846 -194.1674 L 82.4756 -194.1258 L 82.4702 -194.0836 L 82.4684 -194.0411 L 82.4684 -187.3173 L 82.4692 -187.3001 L 82.4714 -187.2831 L 82.4750 -187.2663 L 82.4801 -187.2499 L 82.4866 -187.2340 L 82.4944 -187.2187 L 82.5035 -187.2041 L 82.5138 -187.1904 L 82.5252 -187.1776 L 82.5378 -187.1659 L 82.5512 -187.1552 L 82.5656 -187.1457 L 82.5806 -187.1376 L 82.5964 -187.1307 L 82.6127 -187.1252 L 82.6293 -187.1211 L 82.6463 -187.1185 L 82.6634 -187.1173 L 82.6806 -187.1176 L 82.6977 -187.1194 L 82.7146 -187.1227 L 82.7311 -187.1273 L 82.7471 -187.1334 L 82.7626 -187.1408 L 96.9039 -194.6916 L 96.9397 -194.7127 L 96.9736 -194.7366 L 97.0055 -194.7633 L 97.0350 -194.7926 L 97.0619 -194.8242 L 97.0862 -194.8579 L 97.1075 -194.8936 L 97.1259 -194.9308 L 97.1410 -194.9695 L 97.1530 -195.0093 L 97.1615 -195.0499 L 97.1667 -195.0912 L 97.1684 -195.1327 Z M 99.9184 -185.8641 L 99.9597 -185.8658 L 100.0007 -185.8709 L 100.0412 -185.8794 L 100.0808 -185.8912 L 100.1193 -185.9062 L 100.1564 -185.9244 L 100.1919 -185.9455 L 100.2255 -185.9695 L 100.2571 -185.9962 L 100.2863 -186.0255 L 100.3130 -186.0570 L 100.3370 -186.0906 L 100.3582 -186.1261 L 100.3763 -186.1632 L 100.3913 -186.2017 L 100.4031 -186.2414 L 100.4116 -186.2818 L 100.4167 -186.3228 L 100.4184 -186.3641 L 100.4184 -193.1641 L 100.4167 -193.2054 L 100.4116 -193.2464 L 100.4031 -193.2868 L 100.3913 -193.3264 L 100.3763 -193.3649 L 100.3582 -193.4021 L 100.3370 -193.4376 L 100.3130 -193.4712 L 100.2863 -193.5027 L 100.2571 -193.5320 L 100.2255 -193.5587 L 100.1919 -193.5827 L 100.1564 -193.6038 L 100.1193 -193.6220 L 100.0808 -193.6370 L 100.0412 -193.6488 L 100.0007 -193.6573 L 99.9597 -193.6624 L 99.9184 -193.6641 L 98.5016 -193.6641 L 98.4608 -193.6624 L 98.4203 -193.6574 L 98.3803 -193.6491 L 98.3411 -193.6376 L 98.3029 -193.6229 L 98.2661 -193.6052 L 84.4734 -186.2405 L 84.4587 -186.2318 L 84.4447 -186.2219 L 84.4317 -186.2108 L 84.4197 -186.1987 L 84.4087 -186.1856 L 84.3989 -186.1716 L 84.3904 -186.1568 L 84.3831 -186.1413 L 84.3772 -186.1252 L 84.3726 -186.1087 L 84.3695 -186.0919 L 84.3679 -186.0749 L 84.3677 -186.0578 L 84.3690 -186.0408 L 84.3717 -186.0239 L 84.3758 -186.0073 L 84.3814 -185.9911 L 84.3883 -185.9755 L 84.3965 -185.9605 L 84.4060 -185.9463 L 84.4167 -185.9329 L 84.4284 -185.9205 L 84.4412 -185.9091 L 84.4549 -185.8989 L 84.4694 -185.8899 L 84.4847 -185.8821 L 84.5005 -185.8757 L 84.5168 -185.8706 L 84.5336 -185.8670 L 84.5505 -185.8648 L 84.5676 -185.8641 Z M 102.2184 -186.3641 L 102.2201 -186.3228 L 102.2252 -186.2818 L 102.2337 -186.2414 L 102.2455 -186.2017 L 102.2605 -186.1632 L 102.2787 -186.1261 L 102.2998 -186.0906 L 102.3238 -186.0570 L 102.3506 -186.0255 L 102.3798 -185.9962 L 102.4113 -185.9695 L 102.4449 -185.9455 L 102.4804 -185.9244 L 102.5176 -185.9062 L 102.5561 -185.8912 L 102.5957 -185.8794 L 102.6361 -185.8709 L 102.6771 -185.8658 L 102.7184 -185.8641 L 111.7285 -185.8641 L 111.7733 -185.8238 L 111.8215 -185.7875 L 111.8725 -185.7555 L 111.9262 -185.7280 L 111.9820 -185.7052 L 112.0395 -185.6873 L 112.0984 -185.6745 L 112.1582 -185.6667 L 112.2184 -185.6641 L 112.2786 -185.6667 L 112.3384 -185.6745 L 112.3973 -185.6873 L 112.4548 -185.7052 L 112.5106 -185.7280 L 112.5643 -185.7555 L 112.6154 -185.7875 L 112.6635 -185.8238 L 112.7083 -185.8641 L 115.2084 -185.8641 L 115.2520 -185.8622 L 115.2952 -185.8565 L 115.3378 -185.8471 L 115.3794 -185.8339 L 115.4197 -185.8172 L 115.4584 -185.7971 L 115.4952 -185.7737 L 115.5298 -185.7471 L 115.5620 -185.7176 L 115.5914 -185.6855 L 115.6180 -185.6509 L 115.6414 -185.6141 L 115.6616 -185.5754 L 115.6783 -185.5351 L 115.6914 -185.4935 L 115.7008 -185.4509 L 115.7065 -185.4077 L 115.7084 -185.3641 L 115.7084 -184.5641 L 115.7094 -184.5393 L 115.7125 -184.5147 L 115.7176 -184.4904 L 115.7247 -184.4667 L 115.7337 -184.4436 L 115.7446 -184.4213 L 115.7573 -184.4000 L 115.7717 -184.3798 L 115.7877 -184.3609 L 115.8052 -184.3434 L 115.8242 -184.3274 L 115.8443 -184.3129 L 115.8656 -184.3003 L 115.8879 -184.2894 L 115.9110 -184.2803 L 115.9348 -184.2733 L 115.9590 -184.2682 L 115.9836 -184.2651 L 116.0084 -184.2641 L 118.4084 -184.2641 L 118.4497 -184.2624 L 118.4907 -184.2573 L 118.5312 -184.2488 L 118.5708 -184.2370 L 118.6093 -184.2220 L 118.6464 -184.2038 L 118.6819 -184.1827 L 118.7155 -184.1587 L 118.7471 -184.1320 L 118.7763 -184.1027 L 118.8030 -184.0712 L 118.8270 -184.0376 L 118.8482 -184.0021 L 118.8663 -183.9649 L 118.8813 -183.9264 L 118.8931 -183.8868 L 118.9016 -183.8464 L 118.9067 -183.8054 L 118.9084 -183.7641 L 118.9084 -180.4206 L 118.9049 -180.3370 L 118.8944 -180.2539 L 118.8770 -180.1720 L 118.8528 -180.0918 L 118.8220 -180.0139 L 118.7847 -179.9389 L 118.7413 -179.8673 L 118.6921 -179.7995 L 118.6374 -179.7361 L 118.5775 -179.6775 L 118.5130 -179.6241 L 118.4442 -179.5763 L 118.3717 -179.5344 L 118.2959 -179.4988 L 118.2174 -179.4696 L 118.1368 -179.4471 L 118.0545 -179.4314 L 117.9712 -179.4226 L 117.8875 -179.4209 L 117.8039 -179.4261 L 117.7210 -179.4384 L 117.6395 -179.4575 L 117.5598 -179.4834 L 117.4826 -179.5158 L 117.4084 -179.5546 L 115.0832 -180.8971 L 115.0445 -180.9172 L 115.0042 -180.9339 L 114.9626 -180.9471 L 114.9200 -180.9565 L 114.8767 -180.9622 L 114.8332 -180.9641 L 113.7184 -180.9641 L 113.6771 -180.9658 L 113.6361 -180.9709 L 113.5957 -180.9794 L 113.5561 -180.9912 L 113.5176 -181.0062 L 113.4804 -181.0244 L 113.4449 -181.0455 L 113.4113 -181.0695 L 113.3798 -181.0962 L 113.3506 -181.1255 L 113.3238 -181.1570 L 113.2998 -181.1906 L 113.2787 -181.2261 L 113.2605 -181.2632 L 113.2455 -181.3017 L 113.2337 -181.3414 L 113.2252 -181.3818 L 113.2201 -181.4228 L 113.2184 -181.4641 L 113.2184 -181.6641 L 113.2146 -181.7512 L 113.2032 -181.8377 L 113.1843 -181.9229 L 113.1581 -182.0061 L 113.1247 -182.0867 L 113.0844 -182.1641 L 113.0376 -182.2377 L 112.9845 -182.3069 L 112.9255 -182.3712 L 112.8612 -182.4301 L 112.7920 -182.4832 L 112.7184 -182.5301 L 112.6410 -182.5704 L 112.5604 -182.6038 L 112.4772 -182.6300 L 112.3921 -182.6489 L 112.3056 -182.6603 L 112.2184 -182.6641 L 112.1313 -182.6603 L 112.0448 -182.6489 L 111.9596 -182.6300 L 111.8764 -182.6038 L 111.7958 -182.5704 L 111.7184 -182.5301 L 111.6448 -182.4832 L 111.5756 -182.4301 L 111.5113 -182.3712 L 111.4524 -182.3069 L 111.3993 -182.2377 L 111.3524 -182.1641 L 111.3121 -182.0867 L 111.2787 -182.0061 L 111.2525 -181.9229 L 111.2336 -181.8377 L 111.2222 -181.7512 L 111.2184 -181.6641 L 111.2184 -181.0641 L 111.2167 -181.0228 L 111.2116 -180.9818 L 111.2031 -180.9414 L 111.1913 -180.9017 L 111.1763 -180.8632 L 111.1582 -180.8261 L 111.1370 -180.7906 L 111.1130 -180.7570 L 111.0863 -180.7255 L 111.0571 -180.6962 L 111.0255 -180.6695 L 110.9919 -180.6455 L 110.9564 -180.6244 L 110.9193 -180.6062 L 110.8808 -180.5912 L 110.8412 -180.5794 L 110.8007 -180.5709 L 110.7597 -180.5658 L 110.7184 -180.5641 L 109.2184 -180.5641 L 109.1771 -180.5658 L 109.1361 -180.5709 L 109.0957 -180.5794 L 109.0561 -180.5912 L 109.0176 -180.6062 L 108.9804 -180.6244 L 108.9449 -180.6455 L 108.9113 -180.6695 L 108.8798 -180.6962 L 108.8506 -180.7255 L 108.8238 -180.7570 L 108.7998 -180.7906 L 108.7787 -180.8261 L 108.7605 -180.8632 L 108.7455 -180.9017 L 108.7337 -180.9414 L 108.7252 -180.9818 L 108.7201 -181.0228 L 108.7184 -181.0641 L 108.7184 -183.1786 L 108.7166 -183.2213 L 108.7111 -183.2638 L 108.7020 -183.3056 L 108.6894 -183.3465 L 108.6733 -183.3862 L 108.6539 -183.4243 L 108.6312 -183.4607 L 108.6056 -183.4949 L 108.5771 -183.5269 L 108.5460 -183.5563 L 108.5125 -183.5829 L 108.4769 -183.6066 L 108.4393 -183.6271 L 108.4001 -183.6444 L 108.3596 -183.6582 L 108.3181 -183.6685 L 108.2758 -183.6753 L 108.2331 -183.6784 L 101.9184 -183.8641 L 88.9281 -183.8641 L 88.9184 -183.8640 L 88.9087 -183.8639 L 79.7149 -183.6859 L 79.5440 -183.6753 L 79.3746 -183.6501 L 79.2080 -183.6105 L 79.0454 -183.5567 L 78.8880 -183.4893 L 78.7369 -183.4086 L 78.5933 -183.3153 L 78.4582 -183.2101 L 78.3326 -183.0937 L 78.2174 -182.9669 L 78.1135 -182.8308 L 78.0216 -182.6863 L 77.3159 -181.4641 L 77.2691 -181.3905 L 77.2160 -181.3213 L 77.1570 -181.2570 L 77.0927 -181.1980 L 77.0235 -181.1449 L 76.9499 -181.0981 L 76.8725 -181.0578 L 76.7919 -181.0244 L 76.7087 -180.9982 L 76.6236 -180.9793 L 76.5371 -180.9679 L 76.4499 -180.9641 L 76.0037 -180.9641 L 75.9601 -180.9622 L 75.9168 -180.9565 L 75.8743 -180.9471 L 75.8327 -180.9339 L 75.7924 -180.9172 L 75.7537 -180.8971 L 73.4284 -179.5546 L 73.3542 -179.5158 L 73.2770 -179.4834 L 73.1973 -179.4575 L 73.1158 -179.4384 L 73.0329 -179.4261 L 72.9494 -179.4209 L 72.8656 -179.4226 L 72.7823 -179.4314 L 72.7001 -179.4471 L 72.6194 -179.4696 L 72.5409 -179.4988 L 72.4651 -179.5344 L 72.3926 -179.5763 L 72.3238 -179.6241 L 72.2593 -179.6775 L 72.1994 -179.7361 L 72.1447 -179.7995 L 72.0955 -179.8673 L 72.0521 -179.9389 L 72.0149 -180.0139 L 71.9840 -180.0918 L 71.9598 -180.1720 L 71.9424 -180.2539 L 71.9319 -180.3370 L 71.9284 -180.4206 L 71.9284 -183.7641 L 71.9301 -183.8054 L 71.9352 -183.8464 L 71.9437 -183.8868 L 71.9555 -183.9264 L 71.9705 -183.9649 L 71.9887 -184.0021 L 72.0098 -184.0376 L 72.0338 -184.0712 L 72.0606 -184.1027 L 72.0898 -184.1320 L 72.1213 -184.1587 L 72.1549 -184.1827 L 72.1904 -184.2038 L 72.2276 -184.2220 L 72.2661 -184.2370 L 72.3057 -184.2488 L 72.3461 -184.2573 L 72.3871 -184.2624 L 72.4284 -184.2641 L 74.8284 -184.2641 L 74.8532 -184.2651 L 74.8778 -184.2682 L 74.9021 -184.2733 L 74.9258 -184.2803 L 74.9489 -184.2894 L 74.9712 -184.3003 L 74.9925 -184.3129 L 75.0127 -184.3274 L 75.0316 -184.3434 L 75.0491 -184.3609 L 75.0652 -184.3798 L 75.0796 -184.4000 L 75.0923 -184.4213 L 75.1031 -184.4436 L 75.1122 -184.4667 L 75.1192 -184.4904 L 75.1243 -184.5147 L 75.1274 -184.5393 L 75.1284 -184.5641 L 75.1284 -185.3641 L 75.1301 -185.4054 L 75.1352 -185.4464 L 75.1437 -185.4868 L 75.1555 -185.5264 L 75.1705 -185.5649 L 75.1887 -185.6021 L 75.2098 -185.6376 L 75.2338 -185.6712 L 75.2606 -185.7027 L 75.2898 -185.7320 L 75.3213 -185.7587 L 75.3549 -185.7827 L 75.3904 -185.8038 L 75.4276 -185.8220 L 75.4661 -185.8370 L 75.5057 -185.8488 L 75.5461 -185.8573 L 75.5871 -185.8624 L 75.6284 -185.8641 L 79.9684 -185.8641 L 80.0097 -185.8658 L 80.0507 -185.8709 L 80.0912 -185.8794 L 80.1308 -185.8912 L 80.1693 -185.9062 L 80.2064 -185.9244 L 80.2419 -185.9455 L 80.2755 -185.9695 L 80.3071 -185.9962 L 80.3363 -186.0255 L 80.3630 -186.0570 L 80.3870 -186.0906 L 80.4082 -186.1261 L 80.4263 -186.1632 L 80.4413 -186.2017 L 80.4531 -186.2414 L 80.4616 -186.2818 L 80.4667 -186.3228 L 80.4684 -186.3641 L 80.4684 -194.7641 L 80.4720 -194.8485 L 80.4827 -194.9323 L 80.5004 -195.0149 L 80.5250 -195.0956 L 80.5563 -195.1741 L 80.5942 -195.2496 L 80.6383 -195.3216 L 80.6883 -195.3897 L 80.7438 -195.4533 L 80.8046 -195.5120 L 80.8701 -195.5653 L 80.9398 -195.6130 L 81.0133 -195.6545 L 81.0901 -195.6898 L 81.1696 -195.7184 L 81.2512 -195.7402 L 81.3343 -195.7551 L 81.4184 -195.7628 L 81.4571 -195.7655 L 81.4957 -195.7697 L 89.4130 -196.7009 L 97.3481 -197.4641 L 98.3684 -197.4641 L 98.4120 -197.4622 L 98.4552 -197.4565 L 98.4978 -197.4471 L 98.5394 -197.4339 L 98.5797 -197.4172 L 98.6184 -197.3971 L 98.6552 -197.3737 L 98.6898 -197.3471 L 98.7220 -197.3176 L 98.7514 -197.2855 L 98.7780 -197.2509 L 98.8014 -197.2141 L 98.8216 -197.1754 L 98.8383 -197.1351 L 98.8514 -197.0935 L 98.8608 -197.0509 L 98.8665 -197.0077 L 98.8684 -196.9641 L 98.8684 -195.9641 L 98.8694 -195.9393 L 98.8725 -195.9147 L 98.8776 -195.8904 L 98.8847 -195.8667 L 98.8937 -195.8436 L 98.9046 -195.8213 L 98.9173 -195.8000 L 98.9317 -195.7798 L 98.9477 -195.7609 L 98.9652 -195.7434 L 98.9842 -195.7274 L 99.0043 -195.7129 L 99.0256 -195.7003 L 99.0479 -195.6894 L 99.0710 -195.6803 L 99.0948 -195.6733 L 99.1190 -195.6682 L 99.1436 -195.6651 L 99.1684 -195.6641 L 100.5684 -195.6641 L 100.5932 -195.6651 L 100.6178 -195.6682 L 100.6421 -195.6733 L 100.6658 -195.6803 L 100.6889 -195.6894 L 100.7112 -195.7003 L 100.7325 -195.7129 L 100.7527 -195.7274 L 100.7716 -195.7434 L 100.7891 -195.7609 L 100.8052 -195.7798 L 100.8196 -195.8000 L 100.8323 -195.8213 L 100.8431 -195.8436 L 100.8522 -195.8667 L 100.8592 -195.8904 L 100.8643 -195.9147 L 100.8674 -195.9393 L 100.8684 -195.9641 L 100.8684 -197.3641 L 100.8701 -197.4054 L 100.8752 -197.4464 L 100.8837 -197.4868 L 100.8955 -197.5264 L 100.9105 -197.5649 L 100.9287 -197.6021 L 100.9498 -197.6376 L 100.9738 -197.6712 L 101.0006 -197.7027 L 101.0298 -197.7320 L 101.0613 -197.7587 L 101.0949 -197.7827 L 101.1304 -197.8038 L 101.1676 -197.8220 L 101.2061 -197.8370 L 101.2457 -197.8488 L 101.2861 -197.8573 L 101.3271 -197.8624 L 101.3684 -197.8641 L 102.8684 -197.8641 L 102.8849 -197.8634 L 102.9013 -197.8614 L 102.9175 -197.8580 L 102.9334 -197.8533 L 102.9488 -197.8472 L 102.9636 -197.8400 L 102.9778 -197.8315 L 102.9913 -197.8219 L 103.0039 -197.8112 L 103.0156 -197.7995 L 103.0262 -197.7869 L 103.0358 -197.7735 L 103.0443 -197.7593 L 103.0516 -197.7444 L 103.0576 -197.7290 L 103.0623 -197.7132 L 103.0657 -197.6970 L 103.0677 -197.6806 L 103.0684 -197.6641 L 103.0684 -195.8641 L 103.0691 -195.8476 L 103.0711 -195.8312 L 103.0745 -195.8150 L 103.0793 -195.7992 L 103.0853 -195.7838 L 103.0925 -195.7689 L 103.1010 -195.7547 L 103.1106 -195.7413 L 103.1213 -195.7286 L 103.1330 -195.7169 L 103.1456 -195.7063 L 103.1590 -195.6967 L 103.1732 -195.6882 L 103.1881 -195.6809 L 103.2035 -195.6749 L 103.2193 -195.6702 L 103.2355 -195.6668 L 103.2519 -195.6648 L 103.2684 -195.6641 L 105.8184 -195.6641 L 105.8349 -195.6634 L 105.8513 -195.6614 L 105.8675 -195.6580 L 105.8834 -195.6533 L 105.8988 -195.6472 L 105.9136 -195.6400 L 105.9278 -195.6315 L 105.9413 -195.6219 L 105.9539 -195.6112 L 105.9656 -195.5995 L 105.9762 -195.5869 L 105.9858 -195.5735 L 105.9943 -195.5593 L 106.0016 -195.5444 L 106.0076 -195.5290 L 106.0123 -195.5132 L 106.0157 -195.4970 L 106.0177 -195.4806 L 106.0184 -195.4641 L 106.0184 -193.9641 L 106.0165 -193.9208 L 106.0109 -193.8778 L 106.0016 -193.8355 L 105.9887 -193.7942 L 105.9722 -193.7541 L 105.9523 -193.7156 L 105.9292 -193.6790 L 105.9029 -193.6445 L 105.8738 -193.6124 L 105.8420 -193.5830 L 105.8078 -193.5564 L 105.7714 -193.5328 L 105.7332 -193.5126 L 105.6933 -193.4957 L 105.6520 -193.4823 L 105.6098 -193.4725 L 105.5669 -193.4665 L 105.5237 -193.4641 L 105.4804 -193.4655 L 105.4373 -193.4707 L 102.4508 -193.9614 L 102.4336 -193.9635 L 102.4163 -193.9641 L 102.3990 -193.9631 L 102.3818 -193.9607 L 102.3650 -193.9568 L 102.3485 -193.9515 L 102.3325 -193.9447 L 102.3172 -193.9366 L 102.3027 -193.9272 L 102.2890 -193.9165 L 102.2763 -193.9048 L 102.2646 -193.8919 L 102.2541 -193.8781 L 102.2449 -193.8635 L 102.2369 -193.8481 L 102.2303 -193.8321 L 102.2251 -193.8155 L 102.2214 -193.7986 L 102.2192 -193.7814 L 102.2184 -193.7641 Z" fill="#888888" stroke="#000000" stroke-width="0.5" fill-rule="evenodd" stroke-linejoin="round" />
</svg>
