<?xml version="1.0" encoding="UTF-8" standalone="no"?>
<svg xmlns="http://www.w3.org/2000/svg" viewBox="3.7153 -242.4613 130.4975 225.1661" width="100%" height="100%">
  <path d="M 113.3551 -70.9478 L 113.1928 -70.7855 L 113.1681 -70.7702 L 113.1853 -70.7713 L 113.2024 -70.7738 L 113.2192 -70.7777 L 113.2356 -70.7832 L 113.2515 -70.7900 L 113.2667 -70.7981 L 113.2812 -70.8075 L 113.2948 -70.8182 L 113.3074 -70.8299 L 113.3190 -70.8428 L 113.3294 -70.8565 L 113.3386 -70.8712 L 113.3465 -70.8865 L 113.3530 -70.9025 L 113.3581 -70.9190 L 113.3618 -70.9358 L 113.3641 -70.9529 Z" fill="#888888" stroke="#000000" stroke-width="0.5" fill-rule="evenodd" stroke-linejoin="round" />
  <path d="M 101.3148 -68.3535 L 101.3148 -72.9207 L 101.3141 -72.9374 L 101.3120 -72.9540 L 101.3085 -72.9704 L 101.3037 -72.9865 L 101.2975 -73.0020 L 101.2901 -73.0170 L 101.2814 -73.0314 L 101.2715 -73.0449 L 101.2606 -73.0576 L 101.2486 -73.0693 L 101.2357 -73.0800 L 101.2220 -73.0896 L 101.2075 -73.0979 L 101.1923 -73.1051 L 101.1766 -73.1109 L 101.1605 -73.1154 L 101.1440 -73.1185 L 101.1274 -73.1203 L 101.1106 -73.1206 L 101.0939 -73.1196 L 101.0773 -73.1171 L 101.0610 -73.1133 L 101.0451 -73.1081 L 101.0297 -73.1016 L 101.0148 -73.0939 L 100.3928 -72.7348 L 100.2457 -72.6410 L 100.1073 -72.5348 L 99.9786 -72.4170 L 99.6510 -72.0893 L 99.5331 -71.9607 L 99.4269 -71.8223 L 99.3332 -71.6751 L 99.2217 -71.4669 L 99.1550 -71.3061 L 99.1026 -71.1401 L 99.0648 -70.9702 L 99.2366 -70.7856 L 99.2615 -70.7702 L 99.2443 -70.7713 L 99.2272 -70.7738 L 99.2104 -70.7777 L 99.1940 -70.7832 L 99.1781 -70.7900 L 99.1629 -70.7981 L 99.1484 -70.8075 L 99.1348 -70.8182 L 99.1222 -70.8299 L 99.1107 -70.8428 L 99.1002 -70.8565 L 99.0911 -70.8712 L 99.0832 -70.8865 L 99.0766 -70.9025 L 99.0715 -70.9190 L 99.0678 -70.9358 L 99.0656 -70.9529 L 99.0648 -70.9702 M 115.0348 -65.7707 L 115.5148 -65.7707 L 115.5322 -65.7699 L 115.5495 -65.7676 L 115.5666 -65.7639 L 115.5832 -65.7586 L 115.5993 -65.7519 L 115.6148 -65.7439 L 115.6295 -65.7345 L 115.6434 -65.7239 L 115.6562 -65.7121 L 115.6680 -65.6992 L 115.6786 -65.6854 L 115.6880 -65.6707 L 115.6961 -65.6552 L 115.7027 -65.6391 L 115.7080 -65.6224 L 115.7118 -65.6054 L 115.7140 -65.5881 L 115.7148 -65.5707 L 115.7140 -65.4533 L 115.7118 -65.4360 L 115.7080 -65.4189 L 115.7027 -65.4023 L 115.6961 -65.3862 L 115.6880 -65.3707 L 115.6786 -65.3560 L 115.6680 -65.3421 L 115.6562 -65.3293 L 115.6434 -65.3175 L 115.6295 -65.3069 L 115.6148 -65.2975 L 115.5993 -65.2894 L 115.5832 -65.2827 L 115.5666 -65.2775 L 115.5495 -65.2737 L 115.5322 -65.2714 L 115.5148 -65.2707 L 114.0511 -65.2707 L 113.8236 -65.2793 L 113.5974 -65.3052 L 113.3738 -65.3482 L 113.1540 -65.4079 L 112.9395 -65.4842 L 110.0970 -66.6182 L 109.9488 -66.6844 L 109.8065 -66.7624 L 109.6710 -66.8517 L 109.5432 -66.9516 L 109.4239 -67.0616 L 108.6113 -67.8742 M 112.8919 -68.1374 L 112.8980 -68.1526 L 112.9054 -68.1673 L 112.9139 -68.1813 L 112.9235 -68.1946 L 112.9342 -68.2070 L 112.9458 -68.2186 L 112.9584 -68.2291 L 112.9718 -68.2386 L 112.9859 -68.2469 L 113.0007 -68.2541 L 113.0160 -68.2600 L 113.0317 -68.2647 L 113.0478 -68.2680 L 113.0641 -68.2700 L 113.0805 -68.2707 L 114.4748 -68.2707 L 114.5182 -68.2688 L 114.5612 -68.2632 L 114.6036 -68.2538 L 114.6450 -68.2408 L 114.6851 -68.2243 L 114.7237 -68.2044 L 114.7603 -68.1812 L 114.7948 -68.1548 L 114.8269 -68.1256 L 114.8564 -68.0938 L 114.8830 -68.0595 L 114.9065 -68.0230 L 114.9267 -67.9846 L 114.9436 -67.9446 L 114.9569 -67.9033 L 114.9666 -67.8610 L 114.9726 -67.8180 L 114.9748 -67.7747 L 114.9733 -67.7313 L 114.8354 -65.9864 M 111.1148 -68.3535 L 111.1148 -72.9207 L 111.1155 -72.9374 L 111.1176 -72.9540 L 111.1211 -72.9704 L 111.1259 -72.9865 L 111.1321 -73.0020 L 111.1395 -73.0170 L 111.1482 -73.0314 L 111.1581 -73.0449 L 111.1690 -73.0576 L 111.1810 -73.0693 L 111.1939 -73.0800 L 111.2076 -73.0896 L 111.2221 -73.0979 L 111.2373 -73.1051 L 111.2530 -73.1109 L 111.2691 -73.1154 L 111.2856 -73.1185 L 111.3022 -73.1203 L 111.3190 -73.1206 L 111.3357 -73.1196 L 111.3523 -73.1171 L 111.3686 -73.1133 L 111.3845 -73.1081 L 111.4000 -73.1016 L 111.4148 -73.0939 L 112.0368 -72.7348 L 112.1839 -72.6410 L 112.3224 -72.5348 L 112.4510 -72.4170 L 112.7786 -72.0893 L 112.8965 -71.9607 L 113.0027 -71.8223 L 113.0965 -71.6751 L 113.2079 -71.4669 L 113.2746 -71.3061 L 113.3270 -71.1401 L 113.3648 -70.9702 M 101.6562 -68.2121 L 103.6719 -70.2278 L 103.7362 -70.2867 L 103.8054 -70.3398 L 103.8790 -70.3867 L 103.9564 -70.4270 L 104.0370 -70.4604 L 104.1202 -70.4866 L 104.2054 -70.5055 L 104.2919 -70.5169 L 104.3790 -70.5207 L 108.0506 -70.5207 L 108.1377 -70.5169 L 108.2242 -70.5055 L 108.3094 -70.4866 L 108.3926 -70.4604 L 108.4732 -70.4270 L 108.5506 -70.3867 L 108.6242 -70.3398 L 108.6934 -70.2867 L 108.7577 -70.2278 L 110.7734 -68.2121 M 97.5942 -65.9864 L 97.4564 -67.7313 L 97.4548 -67.7747 L 97.4571 -67.8180 L 97.4630 -67.8610 L 97.4727 -67.9033 L 97.4860 -67.9446 L 97.5029 -67.9846 L 97.5231 -68.0230 L 97.5466 -68.0595 L 97.5732 -68.0938 L 97.6027 -68.1256 L 97.6348 -68.1548 L 97.6693 -68.1812 L 97.7060 -68.2044 L 97.7445 -68.2243 L 97.7846 -68.2408 L 97.8260 -68.2538 L 97.8684 -68.2632 L 97.9114 -68.2688 L 97.9548 -68.2707 L 99.3491 -68.2707 L 99.3655 -68.2700 L 99.3818 -68.2680 L 99.3979 -68.2647 L 99.4136 -68.2600 L 99.4289 -68.2541 L 99.4437 -68.2469 L 99.4578 -68.2386 L 99.4712 -68.2291 L 99.4838 -68.2186 L 99.4954 -68.2070 L 99.5061 -68.1946 L 99.5157 -68.1813 L 99.5243 -68.1673 L 99.5316 -68.1526 L 99.5377 -68.1374 M 103.8184 -67.8742 L 103.0058 -67.0616 L 102.8865 -66.9516 L 102.7586 -66.8517 L 102.6231 -66.7624 L 102.4808 -66.6844 L 102.3326 -66.6182 L 99.4901 -65.4842 L 99.2756 -65.4079 L 99.0559 -65.3482 L 98.8322 -65.3052 L 98.6060 -65.2793 L 98.3785 -65.2707 L 96.9148 -65.2707 L 96.8974 -65.2714 L 96.8801 -65.2737 L 96.8630 -65.2775 L 96.8464 -65.2827 L 96.8303 -65.2894 L 96.8148 -65.2975 L 96.8001 -65.3069 L 96.7862 -65.3175 L 96.7734 -65.3293 L 96.7616 -65.3421 L 96.7510 -65.3560 L 96.7416 -65.3707 L 96.7335 -65.3862 L 96.7269 -65.4023 L 96.7216 -65.4189 L 96.7178 -65.4360 L 96.7156 -65.4533 L 96.7148 -65.4707 L 96.7156 -65.5881 L 96.7178 -65.6054 L 96.7216 -65.6224 L 96.7269 -65.6391 L 96.7335 -65.6552 L 96.7416 -65.6707 L 96.7510 -65.6854 L 96.7616 -65.6992 L 96.7734 -65.7121 L 96.7862 -65.7239 L 96.8001 -65.7345 L 96.8148 -65.7439 L 96.8303 -65.7519 L 96.8464 -65.7586 L 96.8630 -65.7639 L 96.8801 -65.7676 L 96.8974 -65.7699 L 96.9148 -65.7707 L 97.3948 -65.7707 M 115.7148 -65.5707 L 115.7148 -65.4707 M 112.1148 -70.6287 L 112.1148 -68.2707 M 113.1509 -70.7707 L 112.3288 -70.8282 M 113.0965 -71.6751 L 113.1275 -71.6213 M 99.3021 -71.6213 L 99.3332 -71.6751 M 100.1009 -70.8282 L 99.2788 -70.7707 M 100.3148 -68.2707 L 100.3148 -70.6287 M 96.7148 -65.4707 L 96.7148 -65.5707 M 108.2577 -68.0207 L 104.1719 -68.0207" fill="none" stroke="#000000" stroke-width="0.5" stroke-linecap="round" stroke-linejoin="round" />
</svg>
