<?xml version="1.0" encoding="UTF-8" standalone="no"?>
<svg xmlns="http://www.w3.org/2000/svg" viewBox="42.2116 -242.4613 92.0013 225.1661" width="100%" height="100%">
  <path d="M 96.4053 -91.1952 L 96.4053 -82.1952 L 96.4019 -82.1126 L 96.3917 -82.0306 L 96.3747 -81.9497 L 96.3511 -81.8705 L 96.3211 -81.7935 L 96.2848 -81.7193 L 96.2425 -81.6483 L 96.1944 -81.5810 L 96.1410 -81.5179 L 96.0826 -81.4595 L 96.0195 -81.4061 L 95.9523 -81.3580 L 95.8813 -81.3157 L 95.8070 -81.2794 L 95.7300 -81.2494 L 95.6508 -81.2258 L 95.5699 -81.2088 L 95.4879 -81.1986 L 95.4053 -81.1952 L 82.4053 -81.1952 L 82.3227 -81.1986 L 82.2407 -81.2088 L 82.1598 -81.2258 L 82.0806 -81.2494 L 82.0036 -81.2794 L 81.9294 -81.3157 L 81.8584 -81.3580 L 81.7911 -81.4061 L 81.7280 -81.4595 L 81.6696 -81.5179 L 81.6162 -81.5810 L 81.5681 -81.6483 L 81.5258 -81.7193 L 81.4895 -81.7935 L 81.4595 -81.8705 L 81.4359 -81.9497 L 81.4189 -82.0306 L 81.4087 -82.1126 L 81.4053 -82.1952 L 81.4053 -91.1952 L 81.4063 -91.2200 L 81.4094 -91.2446 L 81.4145 -91.2689 L 81.4216 -91.2926 L 81.4306 -91.3157 L 81.4415 -91.3380 L 81.4542 -91.3593 L 81.4686 -91.3795 L 81.4846 -91.3984 L 81.5021 -91.4159 L 81.5210 -91.4320 L 81.5412 -91.4464 L 81.5625 -91.4591 L 81.5848 -91.4699 L 81.6079 -91.4790 L 81.6317 -91.4860 L 81.6559 -91.4911 L 81.6805 -91.4942 L 81.7053 -91.4952 L 81.9053 -91.4952 L 81.9315 -91.4964 L 81.9574 -91.4998 L 81.9830 -91.5054 L 82.0079 -91.5133 L 82.0321 -91.5233 L 82.0553 -91.5354 L 82.0774 -91.5495 L 82.0981 -91.5654 L 82.1174 -91.5831 L 82.1351 -91.6024 L 82.1511 -91.6231 L 82.1651 -91.6452 L 82.1772 -91.6684 L 82.1872 -91.6926 L 82.1951 -91.7176 L 82.2008 -91.7431 L 82.2042 -91.7691 L 82.2053 -91.7952 L 82.2042 -91.8214 L 82.2008 -91.8473 L 82.1951 -91.8729 L 82.1872 -91.8978 L 82.1772 -91.9220 L 82.1651 -91.9452 L 82.1511 -91.9673 L 82.1351 -91.9880 L 82.1174 -92.0073 L 82.0981 -92.0250 L 82.0774 -92.0410 L 82.0553 -92.0550 L 82.0321 -92.0671 L 82.0079 -92.0771 L 81.9830 -92.0850 L 81.9574 -92.0907 L 81.9315 -92.0941 L 81.9053 -92.0952 L 81.7053 -92.0952 L 81.6792 -92.0964 L 81.6532 -92.0998 L 81.6277 -92.1054 L 81.6027 -92.1133 L 81.5785 -92.1233 L 81.5553 -92.1354 L 81.5332 -92.1495 L 81.5125 -92.1654 L 81.4932 -92.1831 L 81.4755 -92.2024 L 81.4596 -92.2231 L 81.4455 -92.2452 L 81.4334 -92.2684 L 81.4234 -92.2926 L 81.4155 -92.3176 L 81.4099 -92.3431 L 81.4064 -92.3691 L 81.4053 -92.3952 L 81.4053 -95.0950 L 81.4090 -95.1810 L 81.4201 -95.2664 L 81.4385 -95.3505 L 81.4641 -95.4328 L 81.4966 -95.5125 L 81.5359 -95.5891 L 81.5816 -95.6621 L 81.6335 -95.7308 L 81.6910 -95.7949 L 81.7539 -95.8537 L 81.8216 -95.9070 L 81.8936 -95.9542 L 81.9694 -95.9950 L 82.0485 -96.0292 L 82.1302 -96.0564 L 82.2139 -96.0765 L 82.2990 -96.0893 L 82.3850 -96.0948 L 82.4053 -96.0952 L 95.4053 -96.0952 L 95.4256 -96.0948 L 95.5116 -96.0893 L 95.5967 -96.0765 L 95.6805 -96.0564 L 95.7621 -96.0292 L 95.8412 -95.9950 L 95.9170 -95.9542 L 95.9890 -95.9070 L 96.0567 -95.8537 L 96.1196 -95.7949 L 96.1771 -95.7308 L 96.2290 -95.6621 L 96.2747 -95.5891 L 96.3140 -95.5125 L 96.3465 -95.4328 L 96.3721 -95.3505 L 96.3905 -95.2664 L 96.4016 -95.1810 L 96.4053 -95.0950 L 96.4053 -92.3952 L 96.4042 -92.3691 L 96.4008 -92.3431 L 96.3951 -92.3176 L 96.3872 -92.2926 L 96.3772 -92.2684 L 96.3651 -92.2452 L 96.3511 -92.2231 L 96.3351 -92.2024 L 96.3174 -92.1831 L 96.2981 -92.1654 L 96.2774 -92.1495 L 96.2553 -92.1354 L 96.2321 -92.1233 L 96.2079 -92.1133 L 96.1830 -92.1054 L 96.1574 -92.0998 L 96.1315 -92.0964 L 96.1053 -92.0952 L 95.9053 -92.0952 L 95.8792 -92.0941 L 95.8532 -92.0907 L 95.8277 -92.0850 L 95.8027 -92.0771 L 95.7785 -92.0671 L 95.7553 -92.0550 L 95.7332 -92.0410 L 95.7125 -92.0250 L 95.6932 -92.0073 L 95.6755 -91.9880 L 95.6596 -91.9673 L 95.6455 -91.9452 L 95.6334 -91.9220 L 95.6234 -91.8978 L 95.6155 -91.8729 L 95.6099 -91.8473 L 95.6064 -91.8214 L 95.6053 -91.7952 L 95.6064 -91.7691 L 95.6099 -91.7431 L 95.6155 -91.7176 L 95.6234 -91.6926 L 95.6334 -91.6684 L 95.6455 -91.6452 L 95.6596 -91.6231 L 95.6755 -91.6024 L 95.6932 -91.5831 L 95.7125 -91.5654 L 95.7332 -91.5495 L 95.7553 -91.5354 L 95.7785 -91.5233 L 95.8027 -91.5133 L 95.8277 -91.5054 L 95.8532 -91.4998 L 95.8792 -91.4964 L 95.9053 -91.4952 L 96.1053 -91.4952 L 96.1301 -91.4942 L 96.1547 -91.4911 L 96.1790 -91.4860 L 96.2027 -91.4790 L 96.2258 -91.4699 L 96.2481 -91.4591 L 96.2694 -91.4464 L 96.2896 -91.4320 L 96.3085 -91.4159 L 96.3260 -91.3984 L 96.3420 -91.3795 L 96.3565 -91.3593 L 96.3691 -91.3380 L 96.3800 -91.3157 L 96.3891 -91.2926 L 96.3961 -91.2689 L 96.4012 -91.2446 L 96.4043 -91.2200 Z" fill="#888888" stroke="#000000" stroke-width="0.5" fill-rule="evenodd" stroke-linejoin="round" />
</svg>
