<?xml version="1.0" encoding="UTF-8" standalone="no"?>
<svg xmlns="http://www.w3.org/2000/svg" viewBox="48.2248 -246.8641 92.0013 225.1661" width="100%" height="100%">
  <path d="M 113.4757 -106.3412 L 64.9707 -106.3412 L 64.9707 -107.0515 L 61.9707 -107.0515 L 61.9707 -106.3412 L 61.7707 -106.3412 L 61.7707 -103.8412 L 61.7716 -103.7889 L 61.7743 -103.7366 L 61.7789 -103.6844 L 61.7853 -103.6324 L 61.7934 -103.5807 L 61.8034 -103.5293 L 61.8152 -103.4783 L 61.8288 -103.4277 L 61.8441 -103.3777 L 61.8611 -103.3282 L 61.8799 -103.2793 L 61.9003 -103.2311 L 61.9225 -103.1836 L 61.9462 -103.1370 L 61.9716 -103.0912 L 61.9986 -103.0463 L 62.0271 -103.0024 L 62.0571 -102.9595 L 62.0886 -102.9177 L 62.1216 -102.8770 L 62.1559 -102.8375 L 62.1916 -102.7992 L 62.2287 -102.7622 L 62.2670 -102.7265 L 62.3065 -102.6921 L 62.3472 -102.6592 L 62.3890 -102.6277 L 62.4319 -102.5976 L 62.4758 -102.5691 L 62.5207 -102.5422 L 62.5664 -102.5168 L 62.6131 -102.4930 L 62.6605 -102.4709 L 62.7087 -102.4504 L 62.7576 -102.4317 L 62.8071 -102.4146 L 62.8572 -102.3993 L 62.9078 -102.3858 L 62.9588 -102.3740 L 63.0102 -102.3640 L 63.0619 -102.3558 L 63.1139 -102.3494 L 63.1660 -102.3449 L 63.2183 -102.3421 L 63.2707 -102.3412 L 64.4707 -102.3412 L 64.4881 -102.3415 L 64.5055 -102.3424 L 64.5229 -102.3439 L 64.5402 -102.3461 L 64.5575 -102.3488 L 64.5746 -102.3521 L 64.5916 -102.3561 L 64.6085 -102.3606 L 64.6252 -102.3657 L 64.6417 -102.3714 L 64.6580 -102.3776 L 64.6740 -102.3844 L 64.6898 -102.3918 L 64.7054 -102.3997 L 64.7207 -102.4082 L 64.7356 -102.4172 L 64.7502 -102.4267 L 64.7645 -102.4367 L 64.7785 -102.4472 L 64.7920 -102.4582 L 64.8052 -102.4696 L 64.8180 -102.4815 L 64.8303 -102.4939 L 64.8422 -102.5066 L 64.8537 -102.5198 L 64.8647 -102.5334 L 64.8752 -102.5473 L 64.8852 -102.5616 L 64.8947 -102.5762 L 64.9037 -102.5912 L 64.9121 -102.6065 L 64.9200 -102.6220 L 64.9274 -102.6378 L 64.9342 -102.6539 L 64.9405 -102.6702 L 64.9462 -102.6867 L 64.9513 -102.7034 L 64.9558 -102.7202 L 64.9597 -102.7372 L 64.9631 -102.7544 L 64.9658 -102.7716 L 64.9679 -102.7889 L 64.9694 -102.8063 L 64.9703 -102.8238 L 64.9707 -102.8412 L 64.9707 -103.8412 L 64.9710 -103.8586 L 64.9719 -103.8761 L 64.9734 -103.8935 L 64.9755 -103.9108 L 64.9782 -103.9280 L 64.9816 -103.9452 L 64.9855 -103.9622 L 64.9900 -103.9790 L 64.9951 -103.9957 L 65.0008 -104.0122 L 65.0071 -104.0285 L 65.0139 -104.0446 L 65.0213 -104.0604 L 65.0292 -104.0759 L 65.0376 -104.0912 L 65.0466 -104.1062 L 65.0561 -104.1208 L 65.0661 -104.1351 L 65.0766 -104.1490 L 65.0876 -104.1626 L 65.0991 -104.1758 L 65.1110 -104.1885 L 65.1233 -104.2009 L 65.1361 -104.2128 L 65.1493 -104.2242 L 65.1628 -104.2352 L 65.1768 -104.2457 L 65.1911 -104.2557 L 65.2057 -104.2652 L 65.2207 -104.2742 L 65.2359 -104.2827 L 65.2515 -104.2906 L 65.2673 -104.2980 L 65.2833 -104.3048 L 65.2996 -104.3110 L 65.3161 -104.3167 L 65.3328 -104.3218 L 65.3497 -104.3263 L 65.3667 -104.3303 L 65.3838 -104.3336 L 65.4011 -104.3363 L 65.4184 -104.3385 L 65.4358 -104.3400 L 65.4532 -104.3409 L 65.4707 -104.3412 L 75.2707 -104.3412 L 75.2881 -104.3409 L 75.3055 -104.3400 L 75.3229 -104.3385 L 75.3402 -104.3363 L 75.3575 -104.3336 L 75.3746 -104.3303 L 75.3916 -104.3263 L 75.4085 -104.3218 L 75.4252 -104.3167 L 75.4417 -104.3110 L 75.4580 -104.3048 L 75.4740 -104.2980 L 75.4898 -104.2906 L 75.5054 -104.2827 L 75.5207 -104.2742 L 75.5356 -104.2652 L 75.5502 -104.2557 L 75.5645 -104.2457 L 75.5785 -104.2352 L 75.5920 -104.2242 L 75.6052 -104.2128 L 75.6180 -104.2009 L 75.6303 -104.1885 L 75.6422 -104.1758 L 75.6537 -104.1626 L 75.6647 -104.1490 L 75.6752 -104.1351 L 75.6852 -104.1208 L 75.6947 -104.1062 L 75.7037 -104.0912 L 75.7121 -104.0759 L 75.7200 -104.0604 L 75.7274 -104.0446 L 75.7342 -104.0285 L 75.7405 -104.0122 L 75.7462 -103.9957 L 75.7513 -103.9790 L 75.7558 -103.9622 L 75.7597 -103.9452 L 75.7631 -103.9280 L 75.7658 -103.9108 L 75.7679 -103.8935 L 75.7694 -103.8761 L 75.7703 -103.8586 L 75.7707 -103.8412 L 75.7707 -103.6379 L 77.0673 -102.3412 L 78.0033 -102.3412 L 78.7707 -103.1085 L 78.7707 -103.8412 L 78.7710 -103.8586 L 78.7719 -103.8761 L 78.7734 -103.8935 L 78.7755 -103.9108 L 78.7782 -103.9280 L 78.7816 -103.9452 L 78.7855 -103.9622 L 78.7900 -103.9790 L 78.7951 -103.9957 L 78.8008 -104.0122 L 78.8071 -104.0285 L 78.8139 -104.0446 L 78.8213 -104.0604 L 78.8292 -104.0759 L 78.8376 -104.0912 L 78.8466 -104.1062 L 78.8561 -104.1208 L 78.8661 -104.1351 L 78.8766 -104.1490 L 78.8876 -104.1626 L 78.8991 -104.1758 L 78.9110 -104.1885 L 78.9233 -104.2009 L 78.9361 -104.2128 L 78.9493 -104.2242 L 78.9628 -104.2352 L 78.9768 -104.2457 L 78.9911 -104.2557 L 79.0057 -104.2652 L 79.0207 -104.2742 L 79.0359 -104.2827 L 79.0515 -104.2906 L 79.0673 -104.2980 L 79.0833 -104.3048 L 79.0996 -104.3110 L 79.1161 -104.3167 L 79.1328 -104.3218 L 79.1497 -104.3263 L 79.1667 -104.3303 L 79.1838 -104.3336 L 79.2011 -104.3363 L 79.2184 -104.3385 L 79.2358 -104.3400 L 79.2532 -104.3409 L 79.2707 -104.3412 L 81.2017 -104.3412 L 81.2017 -104.1412 L 81.6337 -104.1412 L 81.6337 -104.3412 L 83.3297 -104.3412 L 83.3297 -104.1412 L 83.7617 -104.1412 L 83.7617 -104.3412 L 85.7937 -104.3412 L 85.7937 -104.1412 L 86.2257 -104.1412 L 86.2257 -104.3412 L 86.7217 -104.3412 L 86.7217 -104.1412 L 87.1537 -104.1412 L 87.1537 -104.3412 L 88.6897 -104.3412 L 88.6897 -104.1412 L 89.1217 -104.1412 L 89.1217 -104.3412 L 89.6337 -104.3412 L 89.6337 -104.1412 L 91.9537 -104.1412 L 91.9537 -104.3412 L 94.0497 -104.3412 L 94.0497 -104.1412 L 94.4817 -104.1412 L 94.4817 -104.3412 L 94.9963 -104.3412 L 94.9963 -104.1412 L 97.0871 -104.1412 L 97.0871 -104.3412 L 97.1697 -104.3412 L 97.1697 -104.1412 L 97.0871 -104.1412 L 94.9963 -104.1412 L 94.8817 -104.1412 L 94.8817 -104.3412 L 94.4817 -104.3412 L 94.4817 -104.1412 L 94.0497 -104.1412 L 92.4337 -104.1412 L 92.3217 -104.1412 L 92.3217 -104.3412 L 91.9537 -104.3412 L 91.9537 -104.1412 L 89.6337 -104.1412 L 89.6337 -104.3412 L 89.1217 -104.3412 L 89.1217 -104.1412 L 88.6897 -104.1412 L 87.1537 -104.1412 L 86.7217 -104.1412 L 86.7217 -104.3412 L 86.2257 -104.3412 L 86.2257 -104.1412 L 85.7937 -104.1412 L 84.1777 -104.1412 L 84.0657 -104.1412 L 84.0657 -104.3412 L 83.7617 -104.3412 L 83.7617 -104.1412 L 83.3297 -104.1412 L 81.6337 -104.1412 L 81.2017 -104.1412 L 81.2017 -104.3412 L 79.2707 -104.3412 L 79.2532 -104.3409 L 79.2358 -104.3400 L 79.2184 -104.3385 L 79.2011 -104.3363 L 79.1838 -104.3336 L 79.1667 -104.3303 L 79.1497 -104.3263 L 79.1328 -104.3218 L 79.1161 -104.3167 L 79.0996 -104.3110 L 79.0833 -104.3048 L 79.0673 -104.2980 L 79.0515 -104.2906 L 79.0359 -104.2827 L 79.0207 -104.2742 L 79.0057 -104.2652 L 78.9911 -104.2557 L 78.9768 -104.2457 L 78.9628 -104.2352 L 78.9493 -104.2242 L 78.9361 -104.2128 L 78.9233 -104.2009 L 78.9110 -104.1885 L 78.8991 -104.1758 L 78.8876 -104.1626 L 78.8766 -104.1490 L 78.8661 -104.1351 L 78.8561 -104.1208 L 78.8466 -104.1062 L 78.8376 -104.0912 L 78.8292 -104.0759 L 78.8213 -104.0604 L 78.8139 -104.0446 L 78.8071 -104.0285 L 78.8008 -104.0122 L 78.7951 -103.9957 L 78.7900 -103.9790 L 78.7855 -103.9622 L 78.7816 -103.9452 L 78.7782 -103.9280 L 78.7755 -103.9108 L 78.7734 -103.8935 L 78.7719 -103.8761 L 78.7710 -103.8586 L 78.7707 -103.8412 L 78.7707 -102.8412 L 78.7703 -102.8238 L 78.7694 -102.8063 L 78.7679 -102.7889 L 78.7658 -102.7716 L 78.7631 -102.7544 L 78.7597 -102.7372 L 78.7558 -102.7202 L 78.7513 -102.7034 L 78.7462 -102.6867 L 78.7405 -102.6702 L 78.7342 -102.6539 L 78.7274 -102.6378 L 78.7200 -102.6220 L 78.7121 -102.6065 L 78.7037 -102.5912 L 78.6947 -102.5762 L 78.6852 -102.5616 L 78.6752 -102.5473 L 78.6647 -102.5334 L 78.6537 -102.5198 L 78.6422 -102.5066 L 78.6303 -102.4939 L 78.6180 -102.4815 L 78.6052 -102.4696 L 78.5920 -102.4582 L 78.5785 -102.4472 L 78.5645 -102.4367 L 78.5502 -102.4267 L 78.5356 -102.4172 L 78.5207 -102.4082 L 78.5054 -102.3997 L 78.4898 -102.3918 L 78.4740 -102.3844 L 78.4580 -102.3776 L 78.4417 -102.3714 L 78.4252 -102.3657 L 78.4085 -102.3606 L 78.3916 -102.3561 L 78.3746 -102.3521 L 78.3575 -102.3488 L 78.3402 -102.3461 L 78.3229 -102.3439 L 78.3055 -102.3424 L 78.2881 -102.3415 L 78.2707 -102.3412 L 111.8607 -102.3412 L 111.8781 -102.3415 L 111.8955 -102.3424 L 111.9129 -102.3439 L 111.9302 -102.3461 L 111.9475 -102.3488 L 111.9646 -102.3521 L 111.9816 -102.3561 L 111.9985 -102.3606 L 112.0152 -102.3657 L 112.0317 -102.3714 L 112.0480 -102.3776 L 112.0640 -102.3844 L 112.0798 -102.3918 L 112.0954 -102.3997 L 112.1107 -102.4082 L 112.1256 -102.4172 L 112.1402 -102.4267 L 112.1545 -102.4367 L 112.1685 -102.4472 L 112.1820 -102.4582 L 112.1952 -102.4696 L 112.2080 -102.4815 L 112.2203 -102.4939 L 112.2322 -102.5066 L 112.2437 -102.5198 L 112.2547 -102.5334 L 112.2652 -102.5473 L 112.2752 -102.5616 L 112.2847 -102.5762 L 112.2937 -102.5912 L 112.3021 -102.6065 L 112.3100 -102.6220 L 112.3174 -102.6378 L 112.3242 -102.6539 L 112.3305 -102.6702 L 112.3362 -102.6867 L 112.3413 -102.7034 L 112.3458 -102.7202 L 112.3497 -102.7372 L 112.3531 -102.7544 L 112.3558 -102.7716 L 112.3579 -102.7889 L 112.3594 -102.8063 L 112.3603 -102.8238 L 112.3607 -102.8412 L 112.3607 -103.4412 L 112.3610 -103.4586 L 112.3619 -103.4761 L 112.3634 -103.4935 L 112.3655 -103.5108 L 112.3682 -103.5280 L 112.3716 -103.5452 L 112.3755 -103.5622 L 112.3800 -103.5790 L 112.3851 -103.5957 L 112.3908 -103.6122 L 112.3971 -103.6285 L 112.4039 -103.6446 L 112.4113 -103.6604 L 112.4192 -103.6759 L 112.4276 -103.6912 L 112.4366 -103.7062 L 112.4461 -103.7208 L 112.4561 -103.7351 L 112.4666 -103.7490 L 112.4776 -103.7626 L 112.4891 -103.7758 L 112.5010 -103.7885 L 112.5133 -103.8009 L 112.5261 -103.8128 L 112.5393 -103.8242 L 112.5528 -103.8352 L 112.5668 -103.8457 L 112.5811 -103.8557 L 112.5957 -103.8652 L 112.6107 -103.8742 L 112.6259 -103.8827 L 112.6415 -103.8906 L 112.6573 -103.8980 L 112.6733 -103.9048 L 112.6896 -103.9110 L 112.7061 -103.9167 L 112.7228 -103.9218 L 112.7397 -103.9263 L 112.7567 -103.9303 L 112.7738 -103.9336 L 112.7911 -103.9363 L 112.8084 -103.9385 L 112.8258 -103.9400 L 112.8432 -103.9409 L 112.8607 -103.9412 L 113.1607 -103.9412 L 113.1781 -103.9409 L 113.1955 -103.9400 L 113.2129 -103.9385 L 113.2302 -103.9363 L 113.2475 -103.9336 L 113.2646 -103.9303 L 113.2816 -103.9263 L 113.2985 -103.9218 L 113.3152 -103.9167 L 113.3317 -103.9110 L 113.3480 -103.9048 L 113.3640 -103.8980 L 113.3798 -103.8906 L 113.3954 -103.8827 L 113.4107 -103.8742 L 113.4256 -103.8652 L 113.4402 -103.8557 L 113.4545 -103.8457 L 113.4685 -103.8352 L 113.4820 -103.8242 L 113.4952 -103.8128 L 113.5080 -103.8009 L 113.5203 -103.7885 L 113.5322 -103.7758 L 113.5437 -103.7626 L 113.5547 -103.7490 L 113.5652 -103.7351 L 113.5752 -103.7208 L 113.5847 -103.7062 L 113.5937 -103.6912 L 113.6021 -103.6759 L 113.6100 -103.6604 L 113.6174 -103.6446 L 113.6242 -103.6285 L 113.6305 -103.6122 L 113.6362 -103.5957 L 113.6413 -103.5790 L 113.6458 -103.5622 L 113.6497 -103.5452 L 113.6531 -103.5280 L 113.6558 -103.5108 L 113.6579 -103.4935 L 113.6594 -103.4761 L 113.6603 -103.4586 L 113.6607 -103.4412 L 113.6607 -102.8412 L 113.6610 -102.8238 L 113.6619 -102.8063 L 113.6634 -102.7889 L 113.6655 -102.7716 L 113.6682 -102.7544 L 113.6716 -102.7372 L 113.6755 -102.7202 L 113.6800 -102.7034 L 113.6851 -102.6867 L 113.6908 -102.6702 L 113.6971 -102.6539 L 113.7039 -102.6378 L 113.7113 -102.6220 L 113.7192 -102.6065 L 113.7276 -102.5912 L 113.7366 -102.5762 L 113.7461 -102.5616 L 113.7561 -102.5473 L 113.7666 -102.5334 L 113.7776 -102.5198 L 113.7891 -102.5066 L 113.8010 -102.4939 L 113.8133 -102.4815 L 113.8261 -102.4696 L 113.8393 -102.4582 L 113.8528 -102.4472 L 113.8668 -102.4367 L 113.8811 -102.4267 L 113.8957 -102.4172 L 113.9107 -102.4082 L 113.9259 -102.3997 L 113.9415 -102.3918 L 113.9573 -102.3844 L 113.9733 -102.3776 L 113.9896 -102.3714 L 114.0061 -102.3657 L 114.0228 -102.3606 L 114.0397 -102.3561 L 114.0567 -102.3521 L 114.0738 -102.3488 L 114.0911 -102.3461 L 114.1084 -102.3439 L 114.1258 -102.3424 L 114.1432 -102.3415 L 114.1607 -102.3412 L 118.9707 -102.3412 L 118.9707 -104.3412 Z M 64.9707 -110.9763 L 64.9705 -110.9745 L 64.9702 -110.9727 L 64.9695 -110.9708 L 64.9687 -110.9690 L 64.9676 -110.9672 L 64.9662 -110.9655 L 64.9646 -110.9637 L 64.9628 -110.9619 L 64.9607 -110.9602 L 64.9584 -110.9585 L 64.9559 -110.9568 L 64.9531 -110.9551 L 64.9501 -110.9535 L 64.9469 -110.9518 L 64.9435 -110.9502 L 64.9398 -110.9487 L 64.9360 -110.9472 L 64.9319 -110.9457 L 64.9276 -110.9442 L 64.9232 -110.9428 L 64.9185 -110.9415 L 64.9137 -110.9401 L 64.9087 -110.9388 L 64.9035 -110.9376 L 64.8982 -110.9364 L 64.8927 -110.9353 L 64.8871 -110.9342 L 64.8813 -110.9332 L 64.8754 -110.9322 L 64.8693 -110.9313 L 64.8631 -110.9304 L 64.8568 -110.9296 L 64.8504 -110.9288 L 64.8439 -110.9281 L 64.8373 -110.9275 L 64.8307 -110.9269 L 64.8239 -110.9264 L 64.8171 -110.9260 L 64.8102 -110.9256 L 64.8033 -110.9252 L 64.7964 -110.9250 L 64.7894 -110.9248 L 64.7824 -110.9246 L 64.7753 -110.9246 L 64.7683 -110.9245 L 64.7613 -110.9246 L 64.7543 -110.9247 L 64.7473 -110.9249 L 64.7403 -110.9251 L 64.7334 -110.9254 L 64.7265 -110.9258 L 64.7196 -110.9262 L 64.7129 -110.9267 L 64.7062 -110.9273 L 64.6996 -110.9279 L 64.6930 -110.9286 L 64.6866 -110.9293 L 64.6803 -110.9301 L 64.6741 -110.9310 L 64.6680 -110.9319 L 64.6620 -110.9328 L 64.6562 -110.9339 L 64.6505 -110.9349 L 64.6449 -110.9360 L 64.6395 -110.9372 L 64.6343 -110.9384 L 64.6292 -110.9397 L 64.6243 -110.9410 L 64.6196 -110.9424 L 64.6151 -110.9438 L 64.6108 -110.9452 L 64.6067 -110.9467 L 64.6027 -110.9482 L 64.5990 -110.9497 L 64.5955 -110.9513 L 64.5922 -110.9529 L 64.5892 -110.9545 L 64.5863 -110.9562 L 64.5837 -110.9579 L 64.5813 -110.9596 L 64.5792 -110.9613 L 64.5773 -110.9631 L 64.5756 -110.9649 L 64.5742 -110.9666 L 64.5730 -110.9684 L 64.5720 -110.9702 L 64.5713 -110.9721 L 64.5709 -110.9739 L 64.5707 -110.9757 L 64.5707 -110.9775 L 64.5710 -110.9793 L 64.5715 -110.9811 L 64.5723 -110.9830 L 64.5733 -110.9848 L 64.5746 -110.9865 L 64.5761 -110.9883 L 64.5779 -110.9901 L 64.5799 -110.9918 L 64.5821 -110.9936 L 64.5846 -110.9953 L 64.5873 -110.9969 L 64.5902 -110.9986 L 64.5933 -111.0002 L 64.5967 -111.0018 L 64.6002 -111.0034 L 64.6040 -111.0049 L 64.6080 -111.0064 L 64.6122 -111.0079 L 64.6166 -111.0093 L 64.6212 -111.0107 L 64.6260 -111.0120 L 64.6309 -111.0133 L 64.6360 -111.0146 L 64.6413 -111.0158 L 64.6467 -111.0169 L 64.6523 -111.0180 L 64.6581 -111.0191 L 64.6640 -111.0201 L 64.6700 -111.0210 L 64.6761 -111.0219 L 64.6824 -111.0227 L 64.6887 -111.0235 L 64.6952 -111.0242 L 64.7018 -111.0249 L 64.7084 -111.0255 L 64.7151 -111.0260 L 64.7219 -111.0265 L 64.7288 -111.0269 L 64.7357 -111.0273 L 64.7426 -111.0276 L 64.7496 -111.0278 L 64.7566 -111.0279 L 64.7636 -111.0280 L 64.7707 -111.0281 L 64.7707 -110.9245 L 64.0707 -110.9245 L 64.0635 -110.9245 L 64.0564 -110.9244 L 64.0493 -110.9242 L 64.0422 -110.9240 L 64.0351 -110.9237 L 64.0281 -110.9234 L 64.0212 -110.9229 L 64.0143 -110.9224 L 64.0075 -110.9219 L 64.0008 -110.9213 L 63.9941 -110.9206 L 63.9876 -110.9199 L 63.9811 -110.9191 L 63.9748 -110.9182 L 63.9686 -110.9173 L 63.9625 -110.9163 L 63.9566 -110.9153 L 63.9508 -110.9142 L 63.9452 -110.9131 L 63.9397 -110.9119 L 63.9344 -110.9107 L 63.9292 -110.9094 L 63.9243 -110.9080 L 63.9195 -110.9067 L 63.9149 -110.9053 L 63.9105 -110.9038 L 63.9064 -110.9023 L 63.9024 -110.9008 L 63.8986 -110.8992 L 63.8951 -110.8976 L 63.8918 -110.8959 L 63.8887 -110.8943 L 63.8859 -110.8926 L 63.8833 -110.8909 L 63.8809 -110.8891 L 63.8788 -110.8874 L 63.8769 -110.8856 L 63.8752 -110.8838 L 63.8738 -110.8820 L 63.8727 -110.8801 L 63.8718 -110.8783 L 63.8712 -110.8765 L 63.8708 -110.8746 L 63.8707 -110.8728 L 63.8707 -110.6625 L 63.8707 -110.6761 L 63.8703 -110.6715 L 63.8694 -110.6670 L 63.8679 -110.6624 L 63.8657 -110.6579 L 63.8629 -110.6534 L 63.8596 -110.6490 L 63.8556 -110.6445 L 63.8510 -110.6401 L 63.8458 -110.6358 L 63.8401 -110.6315 L 63.8337 -110.6272 L 63.8268 -110.6231 L 63.8193 -110.6189 L 63.8113 -110.6149 L 63.8027 -110.6109 L 63.7936 -110.6070 L 63.7839 -110.6032 L 63.7738 -110.5995 L 63.7631 -110.5959 L 63.7520 -110.5924 L 63.7404 -110.5890 L 63.7283 -110.5856 L 63.7158 -110.5824 L 63.7029 -110.5794 L 63.6895 -110.5764 L 63.6758 -110.5736 L 63.6617 -110.5708 L 63.6472 -110.5683 L 63.6324 -110.5658 L 63.6173 -110.5635 L 63.6018 -110.5613 L 63.5861 -110.5593 L 63.5701 -110.5574 L 63.5538 -110.5557 L 63.5374 -110.5541 L 63.5207 -110.5526 L 63.5038 -110.5513 L 63.4868 -110.5502 L 63.4696 -110.5492 L 63.4523 -110.5484 L 63.4349 -110.5477 L 63.4175 -110.5472 L 63.3999 -110.5469 L 63.3824 -110.5467 L 63.3648 -110.5467 L 63.3472 -110.5468 L 63.3297 -110.5471 L 63.3122 -110.5475 L 63.2948 -110.5482 L 63.2774 -110.5489 L 63.2602 -110.5499 L 63.2431 -110.5509 L 63.2262 -110.5522 L 63.2095 -110.5536 L 63.1929 -110.5551 L 63.1766 -110.5568 L 63.1605 -110.5586 L 63.1447 -110.5606 L 63.1292 -110.5628 L 63.1139 -110.5650 L 63.0990 -110.5674 L 63.0844 -110.5700 L 63.0702 -110.5726 L 63.0563 -110.5754 L 63.0428 -110.5784 L 63.0297 -110.5814 L 63.0171 -110.5846 L 63.0049 -110.5878 L 62.9931 -110.5912 L 62.9818 -110.5947 L 62.9710 -110.5983 L 62.9607 -110.6020 L 62.9509 -110.6058 L 62.9416 -110.6096 L 62.9328 -110.6136 L 62.9246 -110.6176 L 62.9169 -110.6217 L 62.9098 -110.6258 L 62.9033 -110.6301 L 62.8973 -110.6344 L 62.8920 -110.6387 L 62.8872 -110.6431 L 62.8830 -110.6475 L 62.8794 -110.6519 L 62.8764 -110.6564 L 62.8741 -110.6609 L 62.8723 -110.6655 L 62.8712 -110.6700 L 62.8707 -110.6746 L 62.8708 -110.6791 L 62.8715 -110.6837 L 62.8728 -110.6882 L 62.8748 -110.6927 L 62.8774 -110.6972 L 62.8805 -110.7017 L 62.8843 -110.7061 L 62.8887 -110.7105 L 62.8937 -110.7149 L 62.8993 -110.7192 L 62.9054 -110.7235 L 62.9121 -110.7277 L 62.9194 -110.7318 L 62.9273 -110.7359 L 62.9357 -110.7399 L 62.9446 -110.7438 L 62.9541 -110.7477 L 62.9641 -110.7514 L 62.9746 -110.7550 L 62.9855 -110.7586 L 62.9970 -110.7621 L 63.0089 -110.7654 L 63.0213 -110.7686 L 63.0341 -110.7718 L 63.0473 -110.7748 L 63.0609 -110.7777 L 63.0749 -110.7804 L 63.0892 -110.7830 L 63.1039 -110.7855 L 63.1190 -110.7879 L 63.1343 -110.7901 L 63.1499 -110.7922 L 63.1659 -110.7941 L 63.1820 -110.7959 L 63.1984 -110.7976 L 63.2150 -110.7991 L 63.2318 -110.8004 L 63.2488 -110.8016 L 63.2659 -110.8026 L 63.2832 -110.8035 L 63.3006 -110.8042 L 63.3180 -110.8048 L 63.3355 -110.8052 L 63.3531 -110.8054 L 63.3707 -110.8055 L 63.3707 -110.5467 L 62.4707 -110.5467 L 62.4707 -110.8055 L 62.4882 -110.8054 L 62.5058 -110.8052 L 62.5233 -110.8048 L 62.5408 -110.8042 L 62.5581 -110.8035 L 62.5754 -110.8026 L 62.5925 -110.8016 L 62.6095 -110.8004 L 62.6263 -110.7991 L 62.6429 -110.7976 L 62.6593 -110.7959 L 62.6754 -110.7941 L 62.6914 -110.7922 L 62.7070 -110.7901 L 62.7223 -110.7879 L 62.7374 -110.7855 L 62.7521 -110.7830 L 62.7664 -110.7804 L 62.7804 -110.7777 L 62.7940 -110.7748 L 62.8072 -110.7718 L 62.8200 -110.7686 L 62.8324 -110.7654 L 62.8443 -110.7621 L 62.8558 -110.7586 L 62.8667 -110.7550 L 62.8772 -110.7514 L 62.8872 -110.7477 L 62.8967 -110.7438 L 62.9056 -110.7399 L 62.9140 -110.7359 L 62.9219 -110.7318 L 62.9292 -110.7277 L 62.9359 -110.7235 L 62.9420 -110.7192 L 62.9476 -110.7149 L 62.9526 -110.7105 L 62.9570 -110.7061 L 62.9608 -110.7017 L 62.9639 -110.6972 L 62.9665 -110.6927 L 62.9685 -110.6882 L 62.9698 -110.6837 L 62.9705 -110.6791 L 62.9706 -110.6746 L 62.9701 -110.6700 L 62.9690 -110.6655 L 62.9672 -110.6609 L 62.9649 -110.6564 L 62.9619 -110.6519 L 62.9583 -110.6475 L 62.9541 -110.6431 L 62.9493 -110.6387 L 62.9440 -110.6344 L 62.9380 -110.6301 L 62.9315 -110.6258 L 62.9244 -110.6217 L 62.9167 -110.6176 L 62.9085 -110.6136 L 62.8997 -110.6096 L 62.8904 -110.6058 L 62.8806 -110.6020 L 62.8703 -110.5983 L 62.8595 -110.5947 L 62.8482 -110.5912 L 62.8364 -110.5878 L 62.8242 -110.5846 L 62.8116 -110.5814 L 62.7985 -110.5784 L 62.7850 -110.5754 L 62.7711 -110.5726 L 62.7569 -110.5700 L 62.7423 -110.5674 L 62.7274 -110.5650 L 62.7121 -110.5628 L 62.6966 -110.5606 L 62.6808 -110.5586 L 62.6647 -110.5568 L 62.6484 -110.5551 L 62.6318 -110.5536 L 62.6151 -110.5522 L 62.5982 -110.5509 L 62.5811 -110.5499 L 62.5639 -110.5489 L 62.5466 -110.5482 L 62.5291 -110.5475 L 62.5116 -110.5471 L 62.4941 -110.5468 L 62.4765 -110.5467 L 62.4589 -110.5467 L 62.4414 -110.5469 L 62.4238 -110.5472 L 62.4064 -110.5477 L 62.3890 -110.5484 L 62.3717 -110.5492 L 62.3545 -110.5502 L 62.3375 -110.5513 L 62.3206 -110.5526 L 62.3039 -110.5541 L 62.2875 -110.5557 L 62.2712 -110.5574 L 62.2552 -110.5593 L 62.2395 -110.5613 L 62.2240 -110.5635 L 62.2089 -110.5658 L 62.1941 -110.5683 L 62.1796 -110.5708 L 62.1655 -110.5736 L 62.1518 -110.5764 L 62.1384 -110.5794 L 62.1255 -110.5824 L 62.1130 -110.5856 L 62.1009 -110.5890 L 62.0893 -110.5924 L 62.0782 -110.5959 L 62.0675 -110.5995 L 62.0574 -110.6032 L 62.0477 -110.6070 L 62.0386 -110.6109 L 62.0300 -110.6149 L 62.0220 -110.6189 L 62.0145 -110.6231 L 62.0076 -110.6272 L 62.0013 -110.6315 L 61.9955 -110.6358 L 61.9903 -110.6401 L 61.9857 -110.6445 L 61.9817 -110.6490 L 61.9784 -110.6534 L 61.9756 -110.6579 L 61.9734 -110.6624 L 61.9719 -110.6670 L 61.9710 -110.6715 L 61.9707 -110.6761 L 61.9707 -110.6625 L 61.9707 -107.0515 L 64.9707 -107.0515 L 64.9707 -110.9624 Z M 89.2232 -106.6412 L 66.7707 -106.6412 L 66.6841 -106.3412 L 89.2232 -106.3412 Z M 111.6757 -106.6412 L 89.2232 -106.6412 L 89.2232 -106.3412 L 111.7623 -106.3412 Z M 63.8707 -113.3956 L 63.8703 -113.4131 L 63.8694 -113.4305 L 63.8679 -113.4479 L 63.8658 -113.4652 L 63.8631 -113.4825 L 63.8597 -113.4996 L 63.8558 -113.5166 L 63.8513 -113.5335 L 63.8462 -113.5502 L 63.8405 -113.5667 L 63.8342 -113.5829 L 63.8274 -113.5990 L 63.8200 -113.6148 L 63.8121 -113.6304 L 63.8037 -113.6456 L 63.7947 -113.6606 L 63.7852 -113.6752 L 63.7752 -113.6895 L 63.7647 -113.7035 L 63.7537 -113.7170 L 63.7422 -113.7302 L 63.7303 -113.7430 L 63.7180 -113.7553 L 63.7052 -113.7672 L 63.6920 -113.7787 L 63.6785 -113.7896 L 63.6645 -113.8002 L 63.6502 -113.8102 L 63.6356 -113.8197 L 63.6207 -113.8287 L 63.6054 -113.8371 L 63.5898 -113.8450 L 63.5740 -113.8524 L 63.5580 -113.8592 L 63.5417 -113.8655 L 63.5252 -113.8712 L 63.5085 -113.8763 L 63.4916 -113.8808 L 63.4746 -113.8847 L 63.4575 -113.8880 L 63.4402 -113.8908 L 63.4229 -113.8929 L 63.4055 -113.8944 L 63.3881 -113.8953 L 63.3707 -113.8956 L 62.4707 -113.8956 L 62.4532 -113.8953 L 62.4358 -113.8944 L 62.4184 -113.8929 L 62.4011 -113.8908 L 62.3838 -113.8880 L 62.3667 -113.8847 L 62.3497 -113.8808 L 62.3328 -113.8763 L 62.3161 -113.8712 L 62.2996 -113.8655 L 62.2833 -113.8592 L 62.2673 -113.8524 L 62.2515 -113.8450 L 62.2359 -113.8371 L 62.2207 -113.8287 L 62.2057 -113.8197 L 62.1911 -113.8102 L 62.1768 -113.8002 L 62.1628 -113.7896 L 62.1493 -113.7787 L 62.1361 -113.7672 L 62.1233 -113.7553 L 62.1110 -113.7430 L 62.0991 -113.7302 L 62.0876 -113.7170 L 62.0766 -113.7035 L 62.0661 -113.6895 L 62.0561 -113.6752 L 62.0466 -113.6606 L 62.0376 -113.6456 L 62.0292 -113.6304 L 62.0213 -113.6148 L 62.0139 -113.5990 L 62.0071 -113.5829 L 62.0008 -113.5667 L 61.9951 -113.5502 L 61.9900 -113.5335 L 61.9855 -113.5166 L 61.9816 -113.4996 L 61.9782 -113.4825 L 61.9755 -113.4652 L 61.9734 -113.4479 L 61.9719 -113.4305 L 61.9710 -113.4131 L 61.9707 -113.3956 L 61.9707 -110.6761 L 61.9710 -110.6716 L 61.9719 -110.6670 L 61.9734 -110.6625 L 61.9755 -110.6581 L 61.9782 -110.6536 L 61.9816 -110.6492 L 61.9855 -110.6448 L 61.9900 -110.6404 L 61.9951 -110.6361 L 62.0008 -110.6318 L 62.0071 -110.6276 L 62.0139 -110.6234 L 62.0213 -110.6193 L 62.0292 -110.6153 L 62.0376 -110.6114 L 62.0466 -110.6075 L 62.0561 -110.6037 L 62.0661 -110.6000 L 62.0766 -110.5964 L 62.0876 -110.5929 L 62.0991 -110.5895 L 62.1110 -110.5862 L 62.1233 -110.5830 L 62.1361 -110.5799 L 62.1493 -110.5769 L 62.1628 -110.5741 L 62.1768 -110.5714 L 62.1911 -110.5688 L 62.2057 -110.5663 L 62.2207 -110.5640 L 62.2359 -110.5618 L 62.2515 -110.5598 L 62.2673 -110.5578 L 62.2833 -110.5561 L 62.2996 -110.5545 L 62.3161 -110.5530 L 62.3328 -110.5517 L 62.3497 -110.5505 L 62.3667 -110.5495 L 62.3838 -110.5486 L 62.4011 -110.5479 L 62.4184 -110.5474 L 62.4358 -110.5470 L 62.4532 -110.5467 L 62.4707 -110.5467 L 63.3707 -110.5467 L 63.3881 -110.5467 L 63.4055 -110.5470 L 63.4229 -110.5474 L 63.4402 -110.5479 L 63.4575 -110.5486 L 63.4746 -110.5495 L 63.4916 -110.5505 L 63.5085 -110.5517 L 63.5252 -110.5530 L 63.5417 -110.5545 L 63.5580 -110.5561 L 63.5740 -110.5578 L 63.5898 -110.5598 L 63.6054 -110.5618 L 63.6207 -110.5640 L 63.6356 -110.5663 L 63.6502 -110.5688 L 63.6645 -110.5714 L 63.6785 -110.5741 L 63.6920 -110.5769 L 63.7052 -110.5799 L 63.7180 -110.5830 L 63.7303 -110.5862 L 63.7422 -110.5895 L 63.7537 -110.5929 L 63.7647 -110.5964 L 63.7752 -110.6000 L 63.7852 -110.6037 L 63.7947 -110.6075 L 63.8037 -110.6114 L 63.8121 -110.6153 L 63.8200 -110.6193 L 63.8274 -110.6234 L 63.8342 -110.6276 L 63.8405 -110.6318 L 63.8462 -110.6361 L 63.8513 -110.6404 L 63.8558 -110.6448 L 63.8597 -110.6492 L 63.8631 -110.6536 L 63.8658 -110.6581 L 63.8679 -110.6625 L 63.8694 -110.6670 L 63.8703 -110.6716 L 63.8707 -110.6761 Z M 64.9707 -112.2401 L 64.9706 -112.2419 L 64.9706 -112.2438 L 64.9706 -112.2457 L 64.9705 -112.2476 L 64.9704 -112.2496 L 64.9703 -112.2516 L 64.9702 -112.2536 L 64.9700 -112.2557 L 64.9699 -112.2578 L 64.9697 -112.2600 L 64.9694 -112.2622 L 64.9692 -112.2644 L 64.9689 -112.2667 L 64.9686 -112.2690 L 64.9682 -112.2713 L 64.9679 -112.2736 L 64.9674 -112.2760 L 64.9670 -112.2785 L 64.9665 -112.2809 L 64.9660 -112.2834 L 64.9654 -112.2860 L 64.9648 -112.2885 L 64.9641 -112.2911 L 64.9634 -112.2938 L 64.9626 -112.2964 L 64.9618 -112.2991 L 64.9610 -112.3018 L 64.9601 -112.3045 L 64.9591 -112.3073 L 64.9581 -112.3101 L 64.9570 -112.3129 L 64.9559 -112.3157 L 64.9547 -112.3186 L 64.9535 -112.3215 L 64.9522 -112.3244 L 64.9508 -112.3273 L 64.9494 -112.3302 L 64.9479 -112.3331 L 64.9463 -112.3360 L 64.9447 -112.3390 L 64.9430 -112.3419 L 64.9413 -112.3448 L 64.9395 -112.3477 L 64.9376 -112.3506 L 64.9357 -112.3535 L 64.9337 -112.3564 L 64.9316 -112.3592 L 64.9295 -112.3621 L 64.9273 -112.3649 L 64.9251 -112.3676 L 64.9228 -112.3704 L 64.9204 -112.3731 L 64.9180 -112.3758 L 64.9155 -112.3784 L 64.9130 -112.3810 L 64.9105 -112.3836 L 64.9079 -112.3861 L 64.9052 -112.3885 L 64.9025 -112.3909 L 64.8998 -112.3933 L 64.8971 -112.3956 L 64.8943 -112.3979 L 64.8915 -112.4000 L 64.8887 -112.4022 L 64.8858 -112.4042 L 64.8829 -112.4062 L 64.8800 -112.4082 L 64.8771 -112.4100 L 64.8742 -112.4119 L 64.8713 -112.4136 L 64.8684 -112.4153 L 64.8655 -112.4169 L 64.8626 -112.4184 L 64.8597 -112.4199 L 64.8568 -112.4213 L 64.8539 -112.4227 L 64.8510 -112.4240 L 64.8481 -112.4252 L 64.8453 -112.4264 L 64.8424 -112.4275 L 64.8396 -112.4286 L 64.8368 -112.4296 L 64.8340 -112.4306 L 64.8313 -112.4315 L 64.8285 -112.4324 L 64.8258 -112.4332 L 64.8232 -112.4339 L 64.8205 -112.4346 L 64.8179 -112.4353 L 64.8154 -112.4359 L 64.8129 -112.4365 L 64.8104 -112.4370 L 64.8079 -112.4375 L 64.8055 -112.4380 L 64.8031 -112.4384 L 64.8007 -112.4388 L 64.7984 -112.4391 L 64.7961 -112.4395 L 64.7939 -112.4398 L 64.7917 -112.4400 L 64.7895 -112.4402 L 64.7873 -112.4404 L 64.7852 -112.4406 L 64.7831 -112.4408 L 64.7811 -112.4409 L 64.7791 -112.4410 L 64.7771 -112.4411 L 64.7751 -112.4411 L 64.7732 -112.4412 L 64.7714 -112.4412 L 64.7695 -112.4412 L 64.0350 -112.4412 L 64.0707 -112.4412 L 64.0678 -112.4412 L 64.0649 -112.4413 L 64.0621 -112.4414 L 64.0592 -112.4415 L 64.0564 -112.4417 L 64.0535 -112.4419 L 64.0507 -112.4422 L 64.0478 -112.4425 L 64.0450 -112.4428 L 64.0422 -112.4432 L 64.0394 -112.4436 L 64.0365 -112.4441 L 64.0337 -112.4446 L 64.0309 -112.4451 L 64.0281 -112.4457 L 64.0253 -112.4463 L 64.0226 -112.4470 L 64.0198 -112.4477 L 64.0171 -112.4484 L 64.0143 -112.4492 L 64.0116 -112.4500 L 64.0089 -112.4509 L 64.0062 -112.4517 L 64.0035 -112.4527 L 64.0008 -112.4536 L 63.9981 -112.4546 L 63.9955 -112.4557 L 63.9928 -112.4568 L 63.9902 -112.4579 L 63.9876 -112.4590 L 63.9850 -112.4602 L 63.9825 -112.4614 L 63.9799 -112.4627 L 63.9774 -112.4640 L 63.9749 -112.4653 L 63.9724 -112.4667 L 63.9699 -112.4681 L 63.9675 -112.4695 L 63.9651 -112.4709 L 63.9627 -112.4724 L 63.9603 -112.4740 L 63.9579 -112.4755 L 63.9556 -112.4771 L 63.9533 -112.4788 L 63.9510 -112.4804 L 63.9487 -112.4821 L 63.9465 -112.4838 L 63.9443 -112.4856 L 63.9421 -112.4874 L 63.9399 -112.4892 L 63.9378 -112.4910 L 63.9357 -112.4929 L 63.9336 -112.4948 L 63.9316 -112.4967 L 63.9296 -112.4987 L 63.9276 -112.5007 L 63.9256 -112.5027 L 63.9237 -112.5047 L 63.9218 -112.5068 L 63.9199 -112.5089 L 63.9181 -112.5110 L 63.9162 -112.5131 L 63.9145 -112.5153 L 63.9127 -112.5175 L 63.9110 -112.5197 L 63.9093 -112.5219 L 63.9077 -112.5242 L 63.9060 -112.5265 L 63.9045 -112.5288 L 63.9029 -112.5311 L 63.9014 -112.5334 L 63.8999 -112.5358 L 63.8985 -112.5382 L 63.8970 -112.5406 L 63.8957 -112.5430 L 63.8943 -112.5454 L 63.8930 -112.5479 L 63.8917 -112.5504 L 63.8905 -112.5529 L 63.8893 -112.5554 L 63.8881 -112.5579 L 63.8870 -112.5604 L 63.8859 -112.5630 L 63.8848 -112.5656 L 63.8838 -112.5682 L 63.8828 -112.5708 L 63.8819 -112.5734 L 63.8810 -112.5760 L 63.8801 -112.5786 L 63.8793 -112.5813 L 63.8785 -112.5839 L 63.8777 -112.5866 L 63.8770 -112.5893 L 63.8763 -112.5919 L 63.8757 -112.5946 L 63.8751 -112.5973 L 63.8745 -112.6001 L 63.8740 -112.6028 L 63.8735 -112.6055 L 63.8730 -112.6082 L 63.8726 -112.6110 L 63.8722 -112.6137 L 63.8719 -112.6165 L 63.8716 -112.6192 L 63.8714 -112.6220 L 63.8711 -112.6247 L 63.8710 -112.6275 L 63.8708 -112.6302 L 63.8707 -112.6330 L 63.8707 -112.6358 L 63.8707 -112.6385 L 63.8707 -112.5748 L 63.8707 -110.8867 L 63.8707 -110.8728 L 63.8708 -110.8746 L 63.8711 -110.8764 L 63.8717 -110.8782 L 63.8726 -110.8800 L 63.8737 -110.8818 L 63.8750 -110.8835 L 63.8766 -110.8853 L 63.8784 -110.8870 L 63.8804 -110.8888 L 63.8827 -110.8905 L 63.8852 -110.8922 L 63.8879 -110.8938 L 63.8909 -110.8955 L 63.8941 -110.8971 L 63.8974 -110.8987 L 63.9010 -110.9002 L 63.9048 -110.9017 L 63.9088 -110.9032 L 63.9131 -110.9046 L 63.9174 -110.9060 L 63.9220 -110.9074 L 63.9268 -110.9087 L 63.9317 -110.9100 L 63.9368 -110.9112 L 63.9421 -110.9124 L 63.9475 -110.9136 L 63.9531 -110.9147 L 63.9588 -110.9157 L 63.9647 -110.9167 L 63.9707 -110.9176 L 63.9768 -110.9185 L 63.9830 -110.9193 L 63.9893 -110.9201 L 63.9957 -110.9208 L 64.0022 -110.9214 L 64.0088 -110.9220 L 64.0155 -110.9225 L 64.0223 -110.9230 L 64.0291 -110.9234 L 64.0359 -110.9237 L 64.0428 -110.9240 L 64.0497 -110.9243 L 64.0567 -110.9244 L 64.0637 -110.9245 L 64.0707 -110.9245 L 64.0776 -110.9245 L 64.0846 -110.9244 L 64.0916 -110.9243 L 64.0985 -110.9240 L 64.1054 -110.9237 L 64.1122 -110.9234 L 64.1190 -110.9230 L 64.1258 -110.9225 L 64.1325 -110.9220 L 64.1391 -110.9214 L 64.1456 -110.9208 L 64.1520 -110.9201 L 64.1583 -110.9193 L 64.1645 -110.9185 L 64.1707 -110.9176 L 64.1766 -110.9167 L 64.1825 -110.9157 L 64.1882 -110.9147 L 64.1938 -110.9136 L 64.1992 -110.9124 L 64.2045 -110.9112 L 64.2096 -110.9100 L 64.2145 -110.9087 L 64.2193 -110.9074 L 64.2239 -110.9060 L 64.2283 -110.9046 L 64.2325 -110.9032 L 64.2365 -110.9017 L 64.2403 -110.9002 L 64.2439 -110.8987 L 64.2472 -110.8971 L 64.2504 -110.8955 L 64.2534 -110.8938 L 64.2561 -110.8922 L 64.2586 -110.8905 L 64.2609 -110.8888 L 64.2629 -110.8870 L 64.2647 -110.8853 L 64.2663 -110.8835 L 64.2676 -110.8818 L 64.2687 -110.8800 L 64.2696 -110.8782 L 64.2702 -110.8764 L 64.2705 -110.8746 L 64.2707 -110.8728 L 64.2705 -110.8710 L 64.2702 -110.8692 L 64.2696 -110.8674 L 64.2687 -110.8656 L 64.2676 -110.8638 L 64.2663 -110.8620 L 64.2647 -110.8602 L 64.2629 -110.8585 L 64.2609 -110.8568 L 64.2586 -110.8551 L 64.2561 -110.8534 L 64.2534 -110.8517 L 64.2504 -110.8501 L 64.2472 -110.8485 L 64.2439 -110.8469 L 64.2403 -110.8453 L 64.2365 -110.8438 L 64.2325 -110.8423 L 64.2283 -110.8409 L 64.2239 -110.8395 L 64.2193 -110.8381 L 64.2145 -110.8368 L 64.2096 -110.8355 L 64.2045 -110.8343 L 64.1992 -110.8331 L 64.1938 -110.8320 L 64.1882 -110.8309 L 64.1825 -110.8299 L 64.1766 -110.8289 L 64.1707 -110.8279 L 64.1645 -110.8271 L 64.1583 -110.8262 L 64.1520 -110.8255 L 64.1456 -110.8248 L 64.1391 -110.8241 L 64.1325 -110.8235 L 64.1258 -110.8230 L 64.1190 -110.8225 L 64.1122 -110.8221 L 64.1054 -110.8218 L 64.0985 -110.8215 L 64.0916 -110.8213 L 64.0846 -110.8211 L 64.0776 -110.8210 L 64.0707 -110.8210 L 64.0707 -110.9245 L 64.7707 -110.9245 L 64.7776 -110.9246 L 64.7846 -110.9247 L 64.7916 -110.9248 L 64.7985 -110.9250 L 64.8054 -110.9253 L 64.8122 -110.9257 L 64.8190 -110.9261 L 64.8258 -110.9265 L 64.8325 -110.9271 L 64.8391 -110.9277 L 64.8456 -110.9283 L 64.8520 -110.9290 L 64.8583 -110.9298 L 64.8645 -110.9306 L 64.8707 -110.9315 L 64.8766 -110.9324 L 64.8825 -110.9334 L 64.8882 -110.9344 L 64.8938 -110.9355 L 64.8992 -110.9366 L 64.9045 -110.9378 L 64.9096 -110.9391 L 64.9145 -110.9403 L 64.9193 -110.9417 L 64.9239 -110.9430 L 64.9283 -110.9444 L 64.9325 -110.9459 L 64.9365 -110.9474 L 64.9403 -110.9489 L 64.9439 -110.9504 L 64.9472 -110.9520 L 64.9504 -110.9536 L 64.9534 -110.9552 L 64.9561 -110.9569 L 64.9586 -110.9586 L 64.9609 -110.9603 L 64.9629 -110.9620 L 64.9647 -110.9638 L 64.9663 -110.9655 L 64.9676 -110.9673 L 64.9687 -110.9691 L 64.9696 -110.9709 L 64.9702 -110.9727 L 64.9705 -110.9745 L 64.9707 -110.9763 Z M 75.7707 -103.6379 L 75.7707 -102.8412 L 75.7710 -102.8238 L 75.7719 -102.8063 L 75.7734 -102.7889 L 75.7755 -102.7716 L 75.7782 -102.7544 L 75.7816 -102.7372 L 75.7855 -102.7202 L 75.7900 -102.7034 L 75.7951 -102.6867 L 75.8008 -102.6702 L 75.8071 -102.6539 L 75.8139 -102.6378 L 75.8213 -102.6220 L 75.8292 -102.6065 L 75.8376 -102.5912 L 75.8466 -102.5762 L 75.8561 -102.5616 L 75.8661 -102.5473 L 75.8766 -102.5334 L 75.8876 -102.5198 L 75.8991 -102.5066 L 75.9110 -102.4939 L 75.9233 -102.4815 L 75.9361 -102.4696 L 75.9493 -102.4582 L 75.9628 -102.4472 L 75.9768 -102.4367 L 75.9911 -102.4267 L 76.0057 -102.4172 L 76.0207 -102.4082 L 76.0359 -102.3997 L 76.0515 -102.3918 L 76.0673 -102.3844 L 76.0833 -102.3776 L 76.0996 -102.3714 L 76.1161 -102.3657 L 76.1328 -102.3606 L 76.1497 -102.3561 L 76.1667 -102.3521 L 76.1838 -102.3488 L 76.2011 -102.3461 L 76.2184 -102.3439 L 76.2358 -102.3424 L 76.2532 -102.3415 L 76.2707 -102.3412 L 77.0673 -102.3412 Z M 83.3297 -104.3412 L 81.6337 -104.3412 L 81.6337 -104.1412 L 83.3297 -104.1412 Z M 94.0497 -104.3412 L 92.4337 -104.3412 L 92.4337 -104.1412 L 94.0497 -104.1412 Z M 85.7937 -104.3412 L 84.1777 -104.3412 L 84.1777 -104.1412 L 85.7937 -104.1412 Z M 88.6897 -104.3412 L 87.1537 -104.3412 L 87.1537 -104.1412 L 88.6897 -104.1412 Z M 78.7707 -102.8412 L 78.7707 -103.1085 L 78.0033 -102.3412 L 78.2707 -102.3412 L 78.2881 -102.3415 L 78.3055 -102.3424 L 78.3229 -102.3439 L 78.3402 -102.3461 L 78.3575 -102.3488 L 78.3746 -102.3521 L 78.3916 -102.3561 L 78.4085 -102.3606 L 78.4252 -102.3657 L 78.4417 -102.3714 L 78.4580 -102.3776 L 78.4740 -102.3844 L 78.4898 -102.3918 L 78.5054 -102.3997 L 78.5207 -102.4082 L 78.5356 -102.4172 L 78.5502 -102.4267 L 78.5645 -102.4367 L 78.5785 -102.4472 L 78.5920 -102.4582 L 78.6052 -102.4696 L 78.6180 -102.4815 L 78.6303 -102.4939 L 78.6422 -102.5066 L 78.6537 -102.5198 L 78.6647 -102.5334 L 78.6752 -102.5473 L 78.6852 -102.5616 L 78.6947 -102.5762 L 78.7037 -102.5912 L 78.7121 -102.6065 L 78.7200 -102.6220 L 78.7274 -102.6378 L 78.7342 -102.6539 L 78.7405 -102.6702 L 78.7462 -102.6867 L 78.7513 -102.7034 L 78.7558 -102.7202 L 78.7597 -102.7372 L 78.7631 -102.7544 L 78.7658 -102.7716 L 78.7679 -102.7889 L 78.7694 -102.8063 L 78.7703 -102.8238 Z M 94.9963 -104.3412 L 94.8817 -104.3412 L 94.8817 -104.1412 L 94.9963 -104.1412 Z M 84.1777 -104.3412 L 84.0657 -104.3412 L 84.0657 -104.1412 L 84.1777 -104.1412 Z M 92.4337 -104.3412 L 92.3217 -104.3412 L 92.3217 -104.1412 L 92.4337 -104.1412 Z M 97.1697 -104.3412 L 97.0871 -104.3412 L 97.0871 -104.1412 L 97.1697 -104.1412 Z" fill="#888888" stroke="#000000" stroke-width="0.5" fill-rule="evenodd" stroke-linejoin="round" />
</svg>
